<?xml version="1.0" encoding="UTF-8" standalone="no"?>
<svg
   id="svg4379"
   height="128"
   width="128"
   version="1.1"
   xml:space="preserve"
   xmlns:xlink="http://www.w3.org/1999/xlink"
   xmlns="http://www.w3.org/2000/svg"
   xmlns:svg="http://www.w3.org/2000/svg"
   xmlns:rdf="http://www.w3.org/1999/02/22-rdf-syntax-ns#"
   xmlns:cc="http://creativecommons.org/ns#"
   xmlns:dc="http://purl.org/dc/elements/1.1/"><defs
     id="defs4381"><linearGradient
       gradientTransform="matrix(2.7297298,0,0,2.7297298,-1.5135124,1.486514)"
       gradientUnits="userSpaceOnUse"
       xlink:href="#linearGradient3924-776"
       id="linearGradient3159"
       y2="43"
       x2="23.99999"
       y1="4.999989"
       x1="23.99999" /><linearGradient
       id="linearGradient3924-776"><stop
         offset="0"
         style="stop-color:#ffffff;stop-opacity:1"
         id="stop3124" /><stop
         offset="0.06316455"
         style="stop-color:#ffffff;stop-opacity:0.23529412"
         id="stop3126" /><stop
         offset="0.95056331"
         style="stop-color:#ffffff;stop-opacity:0.15686275"
         id="stop3128" /><stop
         offset="1"
         style="stop-color:#ffffff;stop-opacity:0.39215687"
         id="stop3130" /></linearGradient><radialGradient
       gradientTransform="matrix(2.003784,0,0,1.4,27.98813,-17.4)"
       gradientUnits="userSpaceOnUse"
       xlink:href="#linearGradient3688-166-749-5"
       id="radialGradient2455-1"
       fy="43.5"
       fx="4.9929786"
       r="2.5"
       cy="43.5"
       cx="4.9929786" /><linearGradient
       id="linearGradient3688-166-749-5"><stop
         offset="0"
         style="stop-color:#181818;stop-opacity:1"
         id="stop2883-0" /><stop
         offset="1"
         style="stop-color:#181818;stop-opacity:0"
         id="stop2885-5" /></linearGradient><radialGradient
       gradientTransform="matrix(2.003784,0,0,1.4,-20.01187,-104.4)"
       gradientUnits="userSpaceOnUse"
       xlink:href="#linearGradient3688-464-309-8"
       id="radialGradient2457-5"
       fy="43.5"
       fx="4.9929786"
       r="2.5"
       cy="43.5"
       cx="4.9929786" /><linearGradient
       id="linearGradient3688-464-309-8"><stop
         offset="0"
         style="stop-color:#181818;stop-opacity:1"
         id="stop2889-9" /><stop
         offset="1"
         style="stop-color:#181818;stop-opacity:0"
         id="stop2891-4" /></linearGradient><linearGradient
       gradientUnits="userSpaceOnUse"
       xlink:href="#linearGradient3702-501-757-0"
       id="linearGradient2459-7"
       y2="39.999443"
       x2="25.058096"
       y1="47.027729"
       x1="25.058096" /><linearGradient
       id="linearGradient3702-501-757-0"><stop
         offset="0"
         style="stop-color:#181818;stop-opacity:0"
         id="stop2895-0" /><stop
         offset="0.5"
         style="stop-color:#181818;stop-opacity:1"
         id="stop2897-2" /><stop
         offset="1"
         style="stop-color:#181818;stop-opacity:0"
         id="stop2899-6" /></linearGradient><linearGradient
       id="linearGradient3811"><stop
         offset="0"
         style="stop-color:#000000;stop-opacity:1"
         id="stop3813" /><stop
         offset="1"
         style="stop-color:#000000;stop-opacity:0"
         id="stop3815" /></linearGradient><radialGradient
       gradientTransform="matrix(1.5563924,0,0,0.16978827,70.270358,102.13029)"
       gradientUnits="userSpaceOnUse"
       xlink:href="#linearGradient3811"
       id="radialGradient4377"
       fy="93.467628"
       fx="-4.0287771"
       r="35.338131"
       cy="93.467628"
       cx="-4.0287771" /><linearGradient
       xlink:href="#linearGradient971"
       id="linearGradient5728"
       gradientUnits="userSpaceOnUse"
       gradientTransform="matrix(2.944699,0,0,2.8997149,-25.317628,-286.72367)"
       x1="32.497078"
       y1="103.04086"
       x2="32.497078"
       y2="131.95612" /><linearGradient
       id="linearGradient971"><stop
         style="stop-color:#f4679d;stop-opacity:1"
         offset="0"
         id="stop967" /><stop
         style="stop-color:#de3e80;stop-opacity:1"
         offset="1"
         id="stop969" /></linearGradient><linearGradient
       xlink:href="#linearGradient1915"
       id="linearGradient5730"
       gradientUnits="userSpaceOnUse"
       gradientTransform="matrix(3.0478032,0,0,2.9845971,-28.726745,-297.83729)"
       x1="33.947651"
       y1="121.9751"
       x2="28.963943"
       y2="130.94566" /><linearGradient
       id="linearGradient1915"><stop
         id="stop1907"
         style="stop-color:#ffffff;stop-opacity:1"
         offset="0" /><stop
         id="stop1909"
         style="stop-color:#ffffff;stop-opacity:0.23529412"
         offset="0.30000019" /><stop
         id="stop1911"
         style="stop-color:#ffffff;stop-opacity:0.15686275"
         offset="0.5" /><stop
         id="stop1913"
         style="stop-color:#ffffff;stop-opacity:0.39215687"
         offset="1" /></linearGradient><linearGradient
       xlink:href="#linearGradient1825"
       id="linearGradient5732"
       gradientUnits="userSpaceOnUse"
       gradientTransform="matrix(2.9594895,0,0,2.899238,-25.43176,-287.27305)"
       x1="30.957426"
       y1="112.0078"
       x2="38.931358"
       y2="128.95221" /><linearGradient
       id="linearGradient1825"><stop
         id="stop1817"
         style="stop-color:#ffffff;stop-opacity:1"
         offset="0" /><stop
         id="stop1819"
         style="stop-color:#ffffff;stop-opacity:0.23529412"
         offset="0.33333337" /><stop
         id="stop1821"
         style="stop-color:#ffffff;stop-opacity:0.15686275"
         offset="0.42857167" /><stop
         id="stop1823"
         style="stop-color:#ffffff;stop-opacity:0.39215687"
         offset="1" /></linearGradient><linearGradient
       id="linearGradient3104-6"><stop
         offset="0"
         style="stop-color:#000000;stop-opacity:0.31782946"
         id="stop3106-3" /><stop
         offset="1"
         style="stop-color:#000000;stop-opacity:0.24031007"
         id="stop3108-9" /></linearGradient><linearGradient
       xlink:href="#linearGradient3600-9-51"
       id="linearGradient1512"
       gradientUnits="userSpaceOnUse"
       gradientTransform="matrix(2.6075127,0,0,2.5079099,-128.96559,3.8893066)"
       x1="74.838791"
       y1="4.535933"
       x2="74.838791"
       y2="49.779099" /><linearGradient
       id="linearGradient3600-9-51"><stop
         offset="0"
         style="stop-color:#f4f4f4;stop-opacity:1"
         id="stop3602-0-0" /><stop
         offset="1"
         style="stop-color:#dbdbdb;stop-opacity:1"
         id="stop3604-9-04" /></linearGradient><linearGradient
       xlink:href="#linearGradient3104-6"
       id="linearGradient567"
       gradientUnits="userSpaceOnUse"
       gradientTransform="matrix(0.80749686,0,0,0.89471714,-120.87499,26.352158)"
       x1="225.28664"
       y1="103.37166"
       x2="225.28664"
       y2="-12.009387" /></defs><metadata
     id="metadata4384"><rdf:RDF><cc:Work
         rdf:about=""><dc:format>image/svg+xml</dc:format><dc:type
           rdf:resource="http://purl.org/dc/dcmitype/StillImage" /></cc:Work></rdf:RDF></metadata><path
     d="M 119,118 A 55,6 0 0 1 9.0000016,118 55,6 0 1 1 119,118 Z"
     id="path3041"
     style="color:#000000;display:inline;overflow:visible;visibility:visible;opacity:0.2;fill:url(#radialGradient4377);fill-opacity:1;fill-rule:nonzero;stroke:none;stroke-width:1;marker:none;enable-background:accumulate" /><g
     transform="matrix(2.6999989,0,0,0.55555607,-0.8000019,94.888882)"
     id="g2036"
     style="display:inline;opacity:0.4"><g
       transform="matrix(1.052632,0,0,1.285713,-1.263158,-13.42854)"
       id="g3712"
       style="opacity:0.4"><rect
         width="5"
         height="7"
         x="38"
         y="40"
         id="rect2801"
         style="fill:url(#radialGradient2455-1);fill-opacity:1;stroke:none" /><rect
         width="5"
         height="7"
         x="-10"
         y="-47"
         transform="scale(-1,-1)"
         id="rect3696"
         style="fill:url(#radialGradient2457-5);fill-opacity:1;stroke:none" /><rect
         width="28"
         height="7.0000005"
         x="10"
         y="40"
         id="rect3700"
         style="fill:url(#linearGradient2459-7);fill-opacity:1;stroke:none" /></g></g><rect
     style="color:#000000;font-variation-settings:normal;display:inline;overflow:visible;visibility:visible;fill:url(#linearGradient1512);fill-opacity:1;fill-rule:nonzero;stroke:none;stroke-width:1;stroke-linecap:butt;stroke-linejoin:miter;stroke-miterlimit:4;stroke-dasharray:none;stroke-dashoffset:0;stroke-opacity:1;marker:none;enable-background:accumulate;stop-color:#000000"
     id="rect5505-21-1-7-2-9"
     y="16"
     x="12.999996"
     ry="9.5"
     rx="9.5"
     height="102.00001"
     width="102.00001" /><rect
     width="101"
     height="101"
     rx="9"
     ry="9"
     x="13.5"
     y="16.5"
     id="rect6741-7"
     style="opacity:1;fill:none;stroke:url(#linearGradient3159);stroke-width:1;stroke-linecap:round;stroke-linejoin:round;stroke-miterlimit:4;stroke-dasharray:none;stroke-dashoffset:0;stroke-opacity:1" /><rect
     width="103"
     height="103"
     rx="10"
     ry="10"
     x="12.5"
     y="15.5"
     id="rect5505-21-6"
     style="color:#000000;display:inline;overflow:visible;visibility:visible;opacity:1;fill:none;stroke:url(#linearGradient567);stroke-width:0.999922;stroke-linecap:butt;stroke-linejoin:round;stroke-miterlimit:4;stroke-dasharray:none;stroke-dashoffset:0;stroke-opacity:1;marker:none;enable-background:accumulate;font-variation-settings:normal;vector-effect:none;fill-opacity:1;-inkscape-stroke:none;stop-color:#000000;stop-opacity:1" /><g
     id="layer4-0"
     transform="matrix(0.9047486,0,0,0.9047486,-702.22529,-649.07614)" /><g
     id="layer4-0-7"
     transform="matrix(0.9047486,0,0,0.9047486,-702.22529,-641.83815)" /><g
     id="layer1-3"
     transform="matrix(0.9047486,0,0,0.9047486,-205.51831,26.980992)" /><path
     id="path859-59-98-9-4-7-9-5"
     style="font-variation-settings:normal;opacity:0.3;vector-effect:none;fill:#bc245d;fill-opacity:1;stroke:none;stroke-width:0.999995;stroke-linecap:butt;stroke-linejoin:miter;stroke-miterlimit:4;stroke-dasharray:none;stroke-dashoffset:0;stroke-opacity:1;-inkscape-stroke:none;marker:none;stop-color:#000000;stop-opacity:1"
     d="m 108.93359,13.005223 c -3.20769,0.04282 -6.35637,1.605257 -8.25977,4.194775 C 87.955071,32.399396 75.236325,47.598794 62.517578,62.798192 56.3445,56.352584 50.194155,49.861896 44.007725,43.444161 c -3.530903,-3.326348 -9.397494,-3.718029 -13.347569,-0.92136 -1.297603,1.088735 -2.544211,2.310253 -3.255859,3.878907 -1.517792,3.034326 -1.102865,6.901111 1.06217,9.521242 9.297401,12.310886 18.565486,24.645706 27.881189,36.941648 3.368411,3.503316 9.184862,4.123514 13.283203,1.560547 2.184898,-1.213441 3.437385,-3.476658 4.864017,-5.437355 14.34676,-20.261767 28.693524,-40.523534 43.040284,-60.785301 2.1314,-2.660149 2.60959,-6.606937 1.01658,-9.668896 -1.72722,-3.561597 -5.7276,-5.652368 -9.61815,-5.52837 z" /><path
     id="path859-59-98-9-4-7-9-5-9"
     style="font-variation-settings:normal;opacity:0.15;vector-effect:none;fill:#de3e80;fill-opacity:1;stroke:none;stroke-width:1;stroke-linecap:butt;stroke-linejoin:miter;stroke-miterlimit:4;stroke-dasharray:none;stroke-dashoffset:0;stroke-opacity:1;-inkscape-stroke:none;marker:none;stop-color:#000000;stop-opacity:1"
     d="m 108.29102,12.03125 c -3.42657,0.221934 -6.66907,2.068497 -8.660998,4.85755 C 87.242931,31.692142 74.855841,46.495485 62.46875,61.298828 56.459781,55.03607 50.5121,48.71072 44.452344,42.499029 40.464209,38.951619 33.887415,38.656455 29.706237,42.024191 c -2.348763,1.886209 -4.068317,4.6788 -4.187347,7.738242 -0.175767,2.631927 0.795086,5.261588 2.512335,7.245883 9.205188,12.188172 18.37746,24.402927 27.611353,36.565903 3.784533,3.94224 10.406937,4.522153 14.902344,1.466797 2.55363,-1.67176 3.93969,-4.501271 5.748006,-6.862028 14.145716,-19.961872 28.261222,-39.945654 42.425822,-59.893832 2.28173,-3.276757 2.38332,-7.917347 0.13867,-11.240234 -2.24374,-3.462823 -6.49746,-5.333971 -10.5664,-5.013672 z" /><path
     id="path859-59-98-9-4-7-9-5-9-2"
     style="font-variation-settings:normal;opacity:0.15;vector-effect:none;fill:#f4679d;fill-opacity:1;stroke:none;stroke-width:1;stroke-linecap:butt;stroke-linejoin:miter;stroke-miterlimit:4;stroke-dasharray:none;stroke-dashoffset:0;stroke-opacity:1;-inkscape-stroke:none;marker:none;stop-color:#000000;stop-opacity:1"
     d="m 109.00781,10.998047 c -4.07439,0.0052 -8.005,2.161253 -10.337056,5.478119 C 86.586493,30.917054 74.502231,45.357941 62.417969,59.798828 56.593818,53.735934 50.851401,47.590081 44.946991,41.60707 40.336009,37.632662 32.70986,37.631554 28.300093,41.925895 c -2.66043,2.43059 -4.212963,6.114203 -3.720603,9.725622 0.265979,2.427595 1.46662,4.643561 3.041521,6.472078 9.103057,12.05592 18.171059,24.140605 27.318442,36.161561 4.384078,4.577159 12.308316,4.95079 17.134766,0.859375 2.335688,-2.004267 3.751885,-4.798002 5.612961,-7.202894 13.986743,-19.766784 27.98908,-39.523474 41.98115,-59.285892 2.67167,-3.961151 2.37213,-9.66624 -0.80099,-13.264072 -2.39556,-2.862874 -6.15135,-4.441683 -9.85953,-4.393626 z" /><path
     id="path859-59-98-9-4-7-9"
     style="font-variation-settings:normal;fill:url(#linearGradient5728);fill-opacity:1;stroke:#910e38;stroke-width:0.999997;stroke-linecap:butt;stroke-linejoin:miter;stroke-miterlimit:4;stroke-dasharray:none;stroke-dashoffset:0;stroke-opacity:0.5;marker:none;stop-color:#000000"
     d="m 110.70216,13.612034 c -2.32593,-0.346811 -4.80112,0.104117 -6.88439,1.461164 a 1.369619,1.348696 0 0 0 -0.005,0.006 c -0.39489,0.25867 -0.75004,0.564104 -1.09838,0.877826 a 1.369619,1.348696 0 0 0 -0.37499,0.311504 L 62.568769,63.796635 43.715785,44.059322 a 1.369619,1.348696 0 0 0 0,-0.006 c -3.169012,-3.292255 -8.458639,-3.845 -12.34804,-1.32535 a 1.369619,1.348696 0 0 0 -0.391089,0.390794 c -3.764235,2.803214 -4.669965,7.945078 -1.77141,11.621506 l 27.779096,36.82988 a 1.369619,1.348696 0 0 0 0.120687,0.14149 c 3.190076,3.195344 8.405928,3.699374 12.244662,1.211998 a 1.369619,1.348696 0 0 0 0.006,0 c 0.960313,-0.626459 1.775885,-1.416163 2.415571,-2.322037 L 117.01733,26.700227 a 1.369619,1.348696 0 0 0 0.005,0 c 2.03482,-2.887104 2.00178,-6.779942 -0.27611,-9.673275 -1.51292,-1.913263 -3.71898,-3.068305 -6.04468,-3.415083 z" /><path
     id="path859-59-9-4-7-5-2-5"
     style="font-variation-settings:normal;opacity:0.6;fill:none;fill-opacity:1;stroke:url(#linearGradient5730);stroke-width:0.999997;stroke-linecap:butt;stroke-linejoin:miter;stroke-miterlimit:4;stroke-dasharray:none;stroke-dashoffset:0;stroke-opacity:0.5;marker:none;stop-color:#000000"
     d="m 62.584817,65.035542 c -0.309214,0 -0.879736,-0.669671 -0.879736,-0.669671 L 42.207331,44.01811 c -2.266098,-2.266096 -6.788424,-2.746674 -10.275026,-0.381641 -3.508344,2.379781 -4.292322,7.31811 -2.473096,9.688972 0.422293,0.597628 28.473622,37.683105 28.473622,37.683105 1.423743,1.618176 4.027947,2.540332 5.777012,2.540332" /><path
     id="path859-59-9-7-8-3-2-2-0"
     style="font-variation-settings:normal;opacity:0.8;fill:none;fill-opacity:1;stroke:url(#linearGradient5732);stroke-width:0.999997;stroke-linecap:butt;stroke-linejoin:miter;stroke-miterlimit:4;stroke-dasharray:none;stroke-dashoffset:0;stroke-opacity:0.5;marker:none;stop-color:#000000"
     d="m 63.797563,93.461852 c 2.632773,0 5.52365,-1.251677 6.956155,-3.04741 L 116.61357,25.500408 c 1.55481,-2.02627 1.47339,-6.646045 -2.65792,-9.542558 -3.83896,-2.691545 -9.31171,-1.082105 -10.83547,0.903699 L 63.380511,64.395126 c 0,0 -0.453773,0.637097 -0.794318,0.637097" /></svg>
