<?xml version="1.0" encoding="UTF-8" standalone="no"?>
<svg
   version="1.1"
   width="16"
   height="16"
   id="svg4372"
   xml:space="preserve"
   xmlns:xlink="http://www.w3.org/1999/xlink"
   xmlns="http://www.w3.org/2000/svg"
   xmlns:svg="http://www.w3.org/2000/svg"
   xmlns:rdf="http://www.w3.org/1999/02/22-rdf-syntax-ns#"
   xmlns:cc="http://creativecommons.org/ns#"
   xmlns:dc="http://purl.org/dc/elements/1.1/"><defs
     id="defs4374"><linearGradient
       x1="23.99999"
       y1="7.5572624"
       x2="23.99999"
       y2="40.752987"
       id="linearGradient3304"
       xlink:href="#linearGradient3924-4-8"
       gradientUnits="userSpaceOnUse"
       gradientTransform="matrix(0.2972973,0,0,0.2972973,0.86486906,0.8648672)" /><linearGradient
       id="linearGradient3924-4-8"><stop
         id="stop3926-0-4"
         style="stop-color:#ffffff;stop-opacity:1"
         offset="0" /><stop
         id="stop3928-6-8"
         style="stop-color:#ffffff;stop-opacity:0.23529412"
         offset="0.06316455" /><stop
         id="stop3930-2-1"
         style="stop-color:#ffffff;stop-opacity:0.15686275"
         offset="0.95056331" /><stop
         id="stop3932-9-0"
         style="stop-color:#ffffff;stop-opacity:0.39215687"
         offset="1" /></linearGradient><linearGradient
       id="linearGradient3600-9-51"><stop
         offset="0"
         style="stop-color:#f4f4f4;stop-opacity:1"
         id="stop3602-0-0" /><stop
         offset="1"
         style="stop-color:#dbdbdb;stop-opacity:1"
         id="stop3604-9-04" /></linearGradient><linearGradient
       id="linearGradient3104-6"><stop
         offset="0"
         style="stop-color:#000000;stop-opacity:0.31782946"
         id="stop3106-3" /><stop
         offset="1"
         style="stop-color:#000000;stop-opacity:0.24031007"
         id="stop3108-9" /></linearGradient><linearGradient
       id="linearGradient971"><stop
         style="stop-color:#f4679d;stop-opacity:1"
         offset="0"
         id="stop967" /><stop
         style="stop-color:#de3e80;stop-opacity:1"
         offset="1"
         id="stop969" /></linearGradient><linearGradient
       id="linearGradient1915"><stop
         id="stop1907"
         style="stop-color:#ffffff;stop-opacity:1"
         offset="0" /><stop
         id="stop1909"
         style="stop-color:#ffffff;stop-opacity:0.23529412"
         offset="0.30000019" /><stop
         id="stop1911"
         style="stop-color:#ffffff;stop-opacity:0.15686275"
         offset="0.5" /><stop
         id="stop1913"
         style="stop-color:#ffffff;stop-opacity:0.39215687"
         offset="1" /></linearGradient><linearGradient
       id="linearGradient1825"><stop
         id="stop1817"
         style="stop-color:#ffffff;stop-opacity:1"
         offset="0" /><stop
         id="stop1819"
         style="stop-color:#ffffff;stop-opacity:0.23529412"
         offset="0.33333337" /><stop
         id="stop1821"
         style="stop-color:#ffffff;stop-opacity:0.15686275"
         offset="0.42857167" /><stop
         id="stop1823"
         style="stop-color:#ffffff;stop-opacity:0.39215687"
         offset="1" /></linearGradient><linearGradient
       xlink:href="#linearGradient3104-6"
       id="linearGradient2140"
       gradientUnits="userSpaceOnUse"
       gradientTransform="matrix(0.80749686,0,0,0.89471714,-36.453698,-22.660761)"
       x1="56.408016"
       y1="42.392338"
       x2="56.408016"
       y2="26.595999" /><linearGradient
       xlink:href="#linearGradient3600-9-51"
       id="linearGradient2184"
       gradientUnits="userSpaceOnUse"
       gradientTransform="matrix(0.3067662,0,0,0.29504822,-14.701832,0.57521328)"
       x1="74.838791"
       y1="4.535933"
       x2="74.838791"
       y2="49.779099" /><linearGradient
       xlink:href="#linearGradient971"
       id="linearGradient2068-3-3-3-6"
       gradientUnits="userSpaceOnUse"
       x1="32.497078"
       y1="103.04086"
       x2="32.497078"
       y2="131.95612"
       gradientTransform="matrix(0.35614006,0,0,0.35793227,-2.9246251,-35.552803)" /><linearGradient
       xlink:href="#linearGradient1915"
       id="linearGradient1641-2"
       gradientUnits="userSpaceOnUse"
       gradientTransform="matrix(0.35616189,0,0,0.35399326,-2.9255136,-35.144974)"
       x1="33.947651"
       y1="121.9751"
       x2="28.963943"
       y2="130.94566" /><linearGradient
       xlink:href="#linearGradient1825"
       id="linearGradient1643-0"
       gradientUnits="userSpaceOnUse"
       gradientTransform="matrix(0.35616189,0,0,0.35399326,-2.9255136,-35.144974)"
       x1="30.957426"
       y1="112.0078"
       x2="38.931358"
       y2="128.95221" /></defs><metadata
     id="metadata4377"><rdf:RDF><cc:Work
         rdf:about=""><dc:format>image/svg+xml</dc:format><dc:type
           rdf:resource="http://purl.org/dc/dcmitype/StillImage" /></cc:Work></rdf:RDF></metadata><rect
     style="color:#000000;font-variation-settings:normal;display:inline;overflow:visible;visibility:visible;vector-effect:none;fill:url(#linearGradient2184);fill-opacity:1;fill-rule:nonzero;stroke:none;stroke-width:1;stroke-linecap:butt;stroke-linejoin:miter;stroke-miterlimit:4;stroke-dasharray:none;stroke-dashoffset:0;stroke-opacity:1;-inkscape-stroke:none;marker:none;enable-background:accumulate;stop-color:#000000"
     id="rect5505-21-1-7-2-9-5"
     y="2.000001"
     x="2"
     ry="1.5"
     rx="1.5"
     height="12"
     width="12" /><rect
     width="11"
     height="11"
     x="2.5"
     y="2.4999969"
     id="rect6741-0-3-5"
     style="opacity:1;fill:none;stroke:url(#linearGradient3304);stroke-width:1;stroke-linecap:round;stroke-linejoin:round;stroke-miterlimit:4;stroke-dasharray:none;stroke-dashoffset:0;stroke-opacity:1"
     rx="1"
     ry="1" /><rect
     width="13.000003"
     height="13.000003"
     rx="2"
     ry="2"
     x="1.5"
     y="1.499997"
     id="rect5505-21-2-8"
     style="color:#000000;display:inline;overflow:visible;visibility:visible;opacity:1;fill:none;stroke:url(#linearGradient2140);stroke-width:0.999922;stroke-linecap:butt;stroke-linejoin:round;stroke-miterlimit:4;stroke-dasharray:none;stroke-dashoffset:0;stroke-opacity:1;marker:none;enable-background:accumulate;font-variation-settings:normal;vector-effect:none;fill-opacity:1;-inkscape-stroke:none;stop-color:#000000;stop-opacity:1" /><path
     style="color:#000000;font-style:normal;font-variant:normal;font-weight:normal;font-stretch:normal;font-size:medium;line-height:normal;font-family:sans-serif;font-variant-ligatures:normal;font-variant-position:normal;font-variant-caps:normal;font-variant-numeric:normal;font-variant-alternates:normal;font-variant-east-asian:normal;font-feature-settings:normal;font-variation-settings:normal;text-indent:0;text-align:start;text-decoration:none;text-decoration-line:none;text-decoration-style:solid;text-decoration-color:#000000;letter-spacing:normal;word-spacing:normal;text-transform:none;writing-mode:lr-tb;direction:ltr;text-orientation:mixed;dominant-baseline:auto;baseline-shift:baseline;text-anchor:start;white-space:normal;shape-padding:0;shape-margin:0;inline-size:0;clip-rule:nonzero;display:inline;overflow:visible;visibility:visible;opacity:0.15;isolation:auto;mix-blend-mode:normal;color-interpolation:sRGB;color-interpolation-filters:linearRGB;solid-color:#000000;solid-opacity:1;vector-effect:none;fill:#f4679d;fill-opacity:1;fill-rule:nonzero;stroke:none;stroke-linecap:butt;stroke-linejoin:miter;stroke-miterlimit:4;stroke-dasharray:none;stroke-dashoffset:0;stroke-opacity:1;marker:none;color-rendering:auto;image-rendering:auto;shape-rendering:auto;text-rendering:auto;enable-background:accumulate;stop-color:#000000"
     d="m 13.672341,1.0118834 c -0.378821,-0.036113 -0.744138,0.011918 -1.052735,0.1191406 -0.617193,0.2144455 -1.045405,0.8539949 -1.358701,1.1672915 l -0.02539,0.025391 -0.02344,0.027344 -3.5605468,4.1113282 -0.726563,-0.77539 v -0.0059 l -0.410156,-0.43164 C 5.6241292,4.3051401 4.1106715,4.1693843 3.0323893,4.9701905 1.9382549,5.7827717 1.6474099,7.3671687 2.4737956,8.4760497 l -0.011719,0.01172 3.3593756,4.5449223 c 0.03582,0.04875 0.08138,0.104284 0.140625,0.166015 l 0.0098,0.0098 c 0.779455,0.79684 2.84238,1.452533 4.0780898,-0.330113 l 5.582031,-8.0468754 h 0.002 C 15.906761,4.4369708 16.071069,3.9112113 15.969889,3.3041748 15.86871,2.6971384 15.453663,2.0838251 14.805827,1.6655029 14.450285,1.4359219 14.051162,1.0479964 13.672341,1.0118834 Z M 5.9796552,13.216285 6.2569982,13.5073 h 0.01367 z"
     id="path968" /><path
     style="color:#000000;font-style:normal;font-variant:normal;font-weight:normal;font-stretch:normal;font-size:medium;line-height:normal;font-family:sans-serif;font-variant-ligatures:normal;font-variant-position:normal;font-variant-caps:normal;font-variant-numeric:normal;font-variant-alternates:normal;font-variant-east-asian:normal;font-feature-settings:normal;font-variation-settings:normal;text-indent:0;text-align:start;text-decoration:none;text-decoration-line:none;text-decoration-style:solid;text-decoration-color:#000000;letter-spacing:normal;word-spacing:normal;text-transform:none;writing-mode:lr-tb;direction:ltr;text-orientation:mixed;dominant-baseline:auto;baseline-shift:baseline;text-anchor:start;white-space:normal;shape-padding:0;shape-margin:0;inline-size:0;clip-rule:nonzero;display:inline;overflow:visible;visibility:visible;opacity:0.3;isolation:auto;mix-blend-mode:normal;color-interpolation:sRGB;color-interpolation-filters:linearRGB;solid-color:#000000;solid-opacity:1;vector-effect:none;fill:#de3e80;fill-opacity:1;fill-rule:nonzero;stroke:none;stroke-linecap:butt;stroke-linejoin:miter;stroke-miterlimit:4;stroke-dasharray:none;stroke-dashoffset:0;stroke-opacity:1;marker:none;color-rendering:auto;image-rendering:auto;shape-rendering:auto;text-rendering:auto;enable-background:accumulate;stop-color:#000000"
     d="m 13.469889,2.0053467 -0.125,0.048828 0.255859,-0.029297 z m 0.130859,0.019531 c -0.397191,-0.060445 -0.822105,0.019431 -1.183593,0.2597657 h -0.002 l -0.0059,0.00586 -0.0332,0.019531 -0.03125,0.03125 -0.0039,0.00391 -0.002,0.00195 c -0.04082,0.032668 -0.08835,0.067239 -0.117188,0.09375 l 0.08789,-0.064453 c -0.06937,0.040154 -0.130964,0.092429 -0.181641,0.1542968 l -4.4492178,5.4257815 -1.753907,-1.875 v -0.002 L 5.7882482,5.9350347 C 5.2335932,5.3469607 4.3278666,5.2521507 3.6554362,5.6967527 h -0.00195 v 0.0019 c -0.034471,0.02309 -0.056521,0.059 -0.085937,0.08789 -0.6400543,0.505621 -0.8061839,1.45086 -0.2929688,2.115234 l -0.00781,-0.0078 3.3593748,4.5449223 c 0.01744,0.02382 0.03618,0.04704 0.05664,0.06836 h 0.002 l 0.002,0.002 c 0.557943,0.570387 1.449279,0.655922 2.113281,0.216797 h 0.002 c 0.16839,-0.112116 0.312756,-0.254917 0.425782,-0.417969 L 14.552066,4.6362633 14.702457,4.4194664 C 15.069398,3.888078 15.060175,3.1632916 14.653627,2.6362633 l -0.002,-0.00195 C 14.384099,2.2890828 13.99879,2.0854515 13.600748,2.0248777 Z M 8.7999672,12.72605 l -0.27539,0.08398 h 0.152343 z"
     id="path962" /><path
     id="path859-59-98-9-4-7"
     style="font-variation-settings:normal;vector-effect:none;fill:url(#linearGradient2068-3-3-3-6);fill-opacity:1;stroke:#910e38;stroke-width:0.999995;stroke-linecap:butt;stroke-linejoin:miter;stroke-miterlimit:4;stroke-dasharray:none;stroke-dashoffset:0;stroke-opacity:0.5;marker:none;stop-color:#000000"
     d="m 13.525986,1.5197517 c -0.281304,-0.042809 -0.580663,0.012851 -0.832617,0.180362 a 0.1656455,0.16647907 0 0 0 -7.18e-4,7.142e-4 c -0.04777,0.031929 -0.09073,0.069632 -0.132856,0.1083572 a 0.1656455,0.16647907 0 0 0 -0.04521,0.038451 L 7.7046152,7.7143677 5.4244832,5.2780537 a 0.1656455,0.16647907 0 0 0 0,-7.15e-4 C 5.0412102,4.8709733 4.4014676,4.802743 3.9310733,5.1137617 a 0.1656455,0.16647907 0 0 0 -0.047298,0.04823 c -0.4552594,0.346026 -0.5647988,0.980721 -0.2142411,1.43453 l 3.359682,4.5461583 a 0.1656455,0.16647907 0 0 0 0.01461,0.01747 c 0.385818,0.394423 1.016636,0.456639 1.480903,0.149605 a 0.1656455,0.16647907 0 0 0 7.18e-4,0 c 0.116143,-0.07733 0.21478,-0.174808 0.292144,-0.286625 L 14.289761,3.1353314 a 0.1656455,0.16647907 0 0 0 7.17e-4,0 C 14.536569,2.7789533 14.532572,2.2984329 14.257068,1.9412879 14.074091,1.7051211 13.807284,1.5625455 13.526008,1.5197412 Z" /><path
     id="path859-59-9-4-7-5-2"
     style="font-variation-settings:normal;opacity:0.6;vector-effect:none;fill:none;fill-opacity:1;stroke:url(#linearGradient1641-2);stroke-width:0.999995;stroke-linecap:butt;stroke-linejoin:miter;stroke-miterlimit:4;stroke-dasharray:none;stroke-dashoffset:0;stroke-opacity:0.5;marker:none;stop-color:#000000"
     d="m 7.7453042,9.2552207 c -0.05995,0.01136 -0.121609,-0.0084 -0.163634,-0.05237 L 5.0288662,6.2924587 C 4.8323757,6.0980667 4.6503767,5.8124547 4.5498873,5.9129447 c -0.115709,0.092402 0.1879125,0.422599 0.3205286,0.592402 0.041892,0.06114 2.5975203,3.5901303 2.5975203,3.5901303 0.121189,0.120827 0.15632,0.40987 0.277388,0.40987" /><path
     id="path859-59-9-7-8-3-2-2"
     style="font-variation-settings:normal;opacity:0.8;vector-effect:none;fill:none;fill-opacity:1;stroke:url(#linearGradient1643-0);stroke-width:0.999995;stroke-linecap:butt;stroke-linejoin:miter;stroke-miterlimit:4;stroke-dasharray:none;stroke-dashoffset:0;stroke-opacity:0.5;marker:none;stop-color:#000000"
     d="m 7.7453242,10.505347 c 0.391802,0 0.458873,-0.46084 0.722612,-0.7650903 L 13.106896,3.1037375 c 0.08188,-0.1177819 0.469401,-0.5983908 0.36104,-0.5983908 -0.220659,-0.1378114 -0.498259,0.3195797 -0.625541,0.5 l -4.9910058,6.188544 c -0.02702,0.03222 -0.06457,0.05392 -0.106085,0.06133" /></svg>
