<svg width="16" height="16" viewBox="0 0 16 16" fill="none" xmlns="http://www.w3.org/2000/svg">
<g clip-path="url(#clip0)">
<path opacity="0.15" d="M13.5251 14.25H2.4751V15.5H13.5251V14.25Z" fill="url(#paint0_linear)"/>
<path opacity="0.15" d="M2.475 14.25V15.4999C2.07169 15.5024 1.5 15.2199 1.5 14.8749C1.5 14.5299 1.95006 14.25 2.475 14.25Z" fill="url(#paint1_radial)"/>
<path opacity="0.15" d="M13.5249 14.25V15.4999C13.9282 15.5024 14.4999 15.2199 14.4999 14.8749C14.4999 14.5299 14.0498 14.25 13.5249 14.25V14.25Z" fill="url(#paint2_radial)"/>
<path d="M13.125 0.25H2.875C2.52982 0.25 2.25 0.529822 2.25 0.875V14.125C2.25 14.4702 2.52982 14.75 2.875 14.75H13.125C13.4702 14.75 13.75 14.4702 13.75 14.125V0.875C13.75 0.529822 13.4702 0.25 13.125 0.25Z" fill="url(#paint3_radial)"/>
<path d="M13.125 0.392578H2.875C2.59886 0.392578 2.375 0.616436 2.375 0.892578V14.1426C2.375 14.4187 2.59886 14.6426 2.875 14.6426H13.125C13.4011 14.6426 13.625 14.4187 13.625 14.1426V0.892578C13.625 0.616436 13.4011 0.392578 13.125 0.392578Z" stroke="url(#paint4_linear)" stroke-linecap="round" stroke-linejoin="round"/>
<path opacity="0.3" d="M13.125 0.125H2.875C2.46079 0.125 2.125 0.460786 2.125 0.875V14.125C2.125 14.5392 2.46079 14.875 2.875 14.875H13.125C13.5392 14.875 13.875 14.5392 13.875 14.125V0.875C13.875 0.460786 13.5392 0.125 13.125 0.125Z" stroke="black"/>
<path opacity="0.3" d="M9.71536 6.25L10.4644 6.92416L7.94756 10.25L6 8.5721L6.64419 7.71816L7.78277 8.70693L9.71536 6.25Z" fill="white"/>
<path d="M9.71536 6L10.4644 6.67416L7.94756 10L6 8.3221L6.64419 7.46817L7.78277 8.45693L9.71536 6Z" fill="#206B00"/>
</g>
<defs>
<linearGradient id="paint0_linear" x1="6.65971" y1="14.25" x2="6.65971" y2="15.5" gradientUnits="userSpaceOnUse">
<stop stop-opacity="0"/>
<stop offset="0.5"/>
<stop offset="1" stop-opacity="0"/>
</linearGradient>
<radialGradient id="paint1_radial" cx="0" cy="0" r="1" gradientUnits="userSpaceOnUse" gradientTransform="translate(2.45108 14.8676) rotate(180) scale(0.917414 0.602941)">
<stop/>
<stop offset="1" stop-opacity="0"/>
</radialGradient>
<radialGradient id="paint2_radial" cx="0" cy="0" r="1" gradientUnits="userSpaceOnUse" gradientTransform="translate(13.5488 14.8676) scale(0.917414 0.602941)">
<stop/>
<stop offset="1" stop-opacity="0"/>
</radialGradient>
<radialGradient id="paint3_radial" cx="0" cy="0" r="1" gradientUnits="userSpaceOnUse" gradientTransform="translate(8 0.208323) rotate(90) scale(17.0601 13.5304)">
<stop stop-color="#FAFAFA"/>
<stop offset="1" stop-color="#E1E1E1"/>
</radialGradient>
<linearGradient id="paint4_linear" x1="8" y1="0.499765" x2="8" y2="14.4998" gradientUnits="userSpaceOnUse">
<stop stop-color="white"/>
<stop offset="0.0348787" stop-color="white" stop-opacity="0.235294"/>
<stop offset="0.964286" stop-color="white" stop-opacity="0.156863"/>
<stop offset="1" stop-color="white" stop-opacity="0.392157"/>
</linearGradient>
<clipPath id="clip0">
<rect width="16" height="16" fill="white"/>
</clipPath>
</defs>
</svg>
