<?xml version="1.0" encoding="UTF-8" standalone="no"?>
<svg
   id="svg4715"
   height="32"
   width="32"
   version="1.1"
   xmlns:xlink="http://www.w3.org/1999/xlink"
   xmlns="http://www.w3.org/2000/svg"
   xmlns:svg="http://www.w3.org/2000/svg"
   xmlns:rdf="http://www.w3.org/1999/02/22-rdf-syntax-ns#"
   xmlns:cc="http://creativecommons.org/ns#"
   xmlns:dc="http://purl.org/dc/elements/1.1/">
  <defs
     id="defs4717">
    <linearGradient
       id="linearGradient3924">
      <stop
         offset="0"
         style="stop-color:#ffffff;stop-opacity:1"
         id="stop3926" />
      <stop
         offset="0.08071423"
         style="stop-color:#ffffff;stop-opacity:0.23529412"
         id="stop3928" />
      <stop
         offset="0.90786326"
         style="stop-color:#ffffff;stop-opacity:0.15686275"
         id="stop3930" />
      <stop
         offset="1"
         style="stop-color:#ffffff;stop-opacity:0.39215687"
         id="stop3932" />
    </linearGradient>
    <radialGradient
       gradientTransform="matrix(2.003784,0,0,1.4,27.98813,-17.4)"
       gradientUnits="userSpaceOnUse"
       xlink:href="#linearGradient3688-166-749"
       id="radialGradient3163"
       fy="43.5"
       fx="4.9929786"
       r="2.5"
       cy="43.5"
       cx="4.9929786" />
    <linearGradient
       id="linearGradient3688-166-749">
      <stop
         offset="0"
         style="stop-color:#181818;stop-opacity:1"
         id="stop2883" />
      <stop
         offset="1"
         style="stop-color:#181818;stop-opacity:0"
         id="stop2885" />
    </linearGradient>
    <radialGradient
       gradientTransform="matrix(2.003784,0,0,1.4,-20.01187,-104.4)"
       gradientUnits="userSpaceOnUse"
       xlink:href="#linearGradient3688-464-309"
       id="radialGradient3165"
       fy="43.5"
       fx="4.9929786"
       r="2.5"
       cy="43.5"
       cx="4.9929786" />
    <linearGradient
       id="linearGradient3688-464-309">
      <stop
         offset="0"
         style="stop-color:#181818;stop-opacity:1"
         id="stop2889" />
      <stop
         offset="1"
         style="stop-color:#181818;stop-opacity:0"
         id="stop2891" />
    </linearGradient>
    <linearGradient
       gradientUnits="userSpaceOnUse"
       xlink:href="#linearGradient3702-501-757"
       id="linearGradient3167"
       y2="39.999443"
       x2="25.058096"
       y1="47.027729"
       x1="25.058096" />
    <linearGradient
       id="linearGradient3702-501-757">
      <stop
         offset="0"
         style="stop-color:#181818;stop-opacity:0"
         id="stop2895" />
      <stop
         offset="0.5"
         style="stop-color:#181818;stop-opacity:1"
         id="stop2897" />
      <stop
         offset="1"
         style="stop-color:#181818;stop-opacity:0"
         id="stop2899" />
    </linearGradient>
    <linearGradient
       gradientTransform="matrix(0.67567568,0,0,0.67567572,-0.2162133,-0.21620907)"
       gradientUnits="userSpaceOnUse"
       xlink:href="#linearGradient3924"
       id="linearGradient3027"
       y2="41.759991"
       x2="23.999996"
       y1="6.2399888"
       x1="23.999996" />
    <linearGradient
       id="linearGradient1825">
      <stop
         id="stop1817"
         style="stop-color:#ffffff;stop-opacity:1"
         offset="0" />
      <stop
         id="stop1819"
         style="stop-color:#ffffff;stop-opacity:0.23529412"
         offset="0.33333337" />
      <stop
         id="stop1821"
         style="stop-color:#ffffff;stop-opacity:0.15686275"
         offset="0.42857167" />
      <stop
         id="stop1823"
         style="stop-color:#ffffff;stop-opacity:0.39215687"
         offset="1" />
    </linearGradient>
    <linearGradient
       id="linearGradient1915">
      <stop
         id="stop1907"
         style="stop-color:#ffffff;stop-opacity:1"
         offset="0" />
      <stop
         id="stop1909"
         style="stop-color:#ffffff;stop-opacity:0.23529412"
         offset="0.30000019" />
      <stop
         id="stop1911"
         style="stop-color:#ffffff;stop-opacity:0.15686275"
         offset="0.5" />
      <stop
         id="stop1913"
         style="stop-color:#ffffff;stop-opacity:0.39215687"
         offset="1" />
    </linearGradient>
    <linearGradient
       xlink:href="#linearGradient3600-9-51"
       id="linearGradient1512"
       gradientUnits="userSpaceOnUse"
       gradientTransform="matrix(0.66466012,0,0,0.63927116,-33.187302,-0.08703975)"
       x1="74.838791"
       y1="4.535933"
       x2="74.838791"
       y2="49.779099" />
    <linearGradient
       id="linearGradient3600-9-51">
      <stop
         offset="0"
         style="stop-color:#f4f4f4;stop-opacity:1"
         id="stop3602-0-0" />
      <stop
         offset="1"
         style="stop-color:#dbdbdb;stop-opacity:1"
         id="stop3604-9-04" />
    </linearGradient>
    <linearGradient
       id="linearGradient3104-6">
      <stop
         offset="0"
         style="stop-color:#000000;stop-opacity:0.31782946"
         id="stop3106-3" />
      <stop
         offset="1"
         style="stop-color:#000000;stop-opacity:0.24031007"
         id="stop3108-9" />
    </linearGradient>
    <linearGradient
       xlink:href="#linearGradient3104-6"
       id="linearGradient1572"
       gradientUnits="userSpaceOnUse"
       gradientTransform="matrix(0.80749686,0,0,0.89471714,-45.635114,-9.2419267)"
       x1="72.893349"
       y1="43.73991"
       x2="72.893349"
       y2="12.523938" />
    <linearGradient
       xlink:href="#linearGradient971"
       id="linearGradient5728"
       gradientUnits="userSpaceOnUse"
       gradientTransform="matrix(0.77861278,0,0,0.74422789,-7.9838446,-74.346625)"
       x1="32.497078"
       y1="103.04086"
       x2="32.497078"
       y2="131.95612" />
    <linearGradient
       id="linearGradient971">
      <stop
         style="stop-color:#f4679d;stop-opacity:1"
         offset="0"
         id="stop967" />
      <stop
         style="stop-color:#de3e80;stop-opacity:1"
         offset="1"
         id="stop969" />
    </linearGradient>
    <linearGradient
       xlink:href="#linearGradient1825"
       id="linearGradient5732"
       gradientUnits="userSpaceOnUse"
       gradientTransform="matrix(0.75974417,0,0,0.7299613,-7.3683671,-72.81804)"
       x1="30.957426"
       y1="112.0078"
       x2="38.931358"
       y2="128.95221" />
    <linearGradient
       xlink:href="#linearGradient1915"
       id="linearGradient5730"
       gradientUnits="userSpaceOnUse"
       gradientTransform="matrix(0.76052369,0,0,0.73215128,-7.5618587,-72.833154)"
       x1="33.947651"
       y1="121.9751"
       x2="28.963943"
       y2="130.94566" />
  </defs>
  <metadata
     id="metadata4720">
    <rdf:RDF>
      <cc:Work
         rdf:about="">
        <dc:format>image/svg+xml</dc:format>
        <dc:type
           rdf:resource="http://purl.org/dc/dcmitype/StillImage" />
      </cc:Work>
    </rdf:RDF>
  </metadata>
  <g
     style="opacity:0.4"
     id="g3712"
     transform="matrix(0.73684208,0,0,0.57142853,-1.6842105,4.1428584)">
    <rect
       style="fill:url(#radialGradient3163);fill-opacity:1;stroke:none"
       id="rect2801"
       y="40"
       x="38"
       height="7"
       width="5" />
    <rect
       style="fill:url(#radialGradient3165);fill-opacity:1;stroke:none"
       id="rect3696"
       transform="scale(-1)"
       y="-47"
       x="-10"
       height="7"
       width="5" />
    <rect
       style="fill:url(#linearGradient3167);fill-opacity:1;stroke:none"
       id="rect3700"
       y="40"
       x="10"
       height="7.0000005"
       width="28" />
  </g>
  <rect
     style="color:#000000;font-variation-settings:normal;display:inline;overflow:visible;visibility:visible;vector-effect:none;fill:url(#linearGradient1512);fill-opacity:1;fill-rule:nonzero;stroke:none;stroke-width:1;stroke-linecap:butt;stroke-linejoin:miter;stroke-miterlimit:4;stroke-dasharray:none;stroke-dashoffset:0;stroke-opacity:1;-inkscape-stroke:none;marker:none;enable-background:accumulate;stop-color:#000000"
     id="rect5505-21-1-7-2-9"
     y="3"
     x="3"
     ry="2.5"
     rx="2.5"
     height="26"
     width="26" />
  <rect
     style="color:#000000;display:inline;overflow:visible;visibility:visible;opacity:1;fill:none;stroke:url(#linearGradient1572);stroke-width:0.999922;stroke-linecap:butt;stroke-linejoin:round;stroke-miterlimit:4;stroke-dasharray:none;stroke-dashoffset:0;stroke-opacity:1;marker:none;enable-background:accumulate;font-variation-settings:normal;vector-effect:none;fill-opacity:1;-inkscape-stroke:none;stop-color:#000000;stop-opacity:1"
     id="rect5505-6-6"
     y="2.5"
     x="2.5"
     ry="3"
     rx="3"
     height="27"
     width="27" />
  <rect
     style="fill:none;stroke:url(#linearGradient3027);stroke-width:0.999998;stroke-linecap:round;stroke-linejoin:round;stroke-miterlimit:4;stroke-dasharray:none;stroke-dashoffset:0;stroke-opacity:1"
     id="rect6741-7"
     y="3.4999998"
     x="3.5"
     ry="1.9999999"
     rx="2"
     height="25.000002"
     width="25" />
  <path
     id="path859-59-98-9-4-7-9-2-6"
     style="font-variation-settings:normal;opacity:0.15;vector-effect:none;fill:#f4679d;fill-opacity:1;stroke:none;stroke-width:1;stroke-linecap:butt;stroke-linejoin:miter;stroke-miterlimit:4;stroke-dasharray:none;stroke-dashoffset:0;stroke-opacity:1;-inkscape-stroke:none;marker:none;stop-color:#000000"
     d="M 27.293022,1.0039062 C 25.471728,1.0498194 24.214808,2.5498601 23.175883,3.864236 20.502039,6.9667823 17.828195,10.069329 15.15435,13.171875 13.699538,11.7622 12.401515,10.161138 10.783257,8.9375 8.5322868,7.5431533 5.1457559,8.5658149 4.2397498,11.110991 c -0.6578147,1.617179 0.00683,3.465449 1.1903895,4.653306 2.3846404,3.025449 4.6820477,6.131227 7.1416247,9.090203 2.028743,1.899129 5.693921,1.325248 7.04623,-1.105868 C 23.584351,18.278066 27.633946,12.86076 31.521778,7.338513 32.756075,5.1153947 31.485522,1.9873319 29.035519,1.2764211 28.482013,1.0654858 27.88352,0.98687439 27.293022,1.0039062 Z" />
  <path
     id="path859-59-98-9-4-7-9-2"
     style="font-variation-settings:normal;opacity:0.3;vector-effect:none;fill:#bc245d;fill-opacity:1;stroke:none;stroke-width:1;stroke-linecap:butt;stroke-linejoin:miter;stroke-miterlimit:4;stroke-dasharray:none;stroke-dashoffset:0;stroke-opacity:1;-inkscape-stroke:none;marker:none;stop-color:#000000"
     d="M 27.550835,2.0027656 C 26.197841,1.94015 25.167691,2.9514248 24.418332,3.9559748 21.347265,7.5190978 18.276199,11.082221 15.205132,14.645344 13.637713,13.106148 12.164324,11.447746 10.549465,9.9818084 8.9085385,8.7487544 6.2467353,9.2621528 5.3262252,11.141438 c -0.6933869,1.230615 -0.2772094,2.778551 0.6845605,3.7394 2.3854284,3.046106 4.7275553,6.130897 7.1396583,9.153178 1.547111,1.521459 4.412096,1.18611 5.522515,-0.687671 C 22.635912,17.88529 26.657034,12.460303 30.58377,6.9767909 31.551515,5.3292516 30.75222,2.9825784 28.947462,2.3162868 28.510251,2.1180338 28.031141,2.0069718 27.550835,2.0027656 Z" />
  <path
     id="path859-59-98-9-4-7-9"
     style="font-variation-settings:normal;vector-effect:none;fill:url(#linearGradient5728);fill-opacity:1;stroke:#910e38;stroke-width:0.999994;stroke-linecap:butt;stroke-linejoin:miter;stroke-miterlimit:4;stroke-dasharray:none;stroke-dashoffset:0;stroke-opacity:0.5;marker:none;stop-color:#000000"
     d="M 25.770242,3.4179909 15.254346,15.616354 10.269399,10.550663 v -0.0015 C 9.4314739,9.7041459 8.0328347,9.5622811 7.004433,10.208963 c -0.041295,0.0263 -0.076493,0.06044 -0.103409,0.100295 -0.9953117,0.719465 -1.2347939,2.039152 -0.4683849,2.982728 l 7.3451169,9.452592 c 0.0097,0.01279 0.02044,0.02492 0.03193,0.03632 0.843496,0.820103 2.222626,0.949465 3.237632,0.311066 5.35e-4,10e-7 0.0011,10e-7 0.0016,0 C 17.30284,22.93118 17.518487,22.728496 17.687627,22.496 21.676567,17.029863 29.652509,6.0953487 29.652509,6.0953487 30.323513,4.9472402 29.995651,3.532909 28.853217,2.8813297 27.710783,2.2297505 26.549248,2.4150924 25.770242,3.4179909 Z" />
  <path
     id="path859-59-9-4-7-5-2-5"
     style="font-variation-settings:normal;opacity:0.6;vector-effect:none;fill:none;fill-opacity:1;stroke:url(#linearGradient5730);stroke-width:0.999995;stroke-linecap:butt;stroke-linejoin:miter;stroke-miterlimit:4;stroke-dasharray:none;stroke-dashoffset:0;stroke-opacity:0.5;marker:none;stop-color:#000000"
     d="m 15.342023,16.821596 c -0.128026,0.02351 -0.731797,-0.419922 -0.821535,-0.510878 L 9.7016477,11.431061 C 9.2075312,10.773796 8.3869571,10.619317 7.6931703,11.011279 c -0.8488802,0.479584 -0.8970417,1.259282 -0.3970972,1.748496 0.1053715,0.146604 7.1822099,9.299126 7.1822099,9.299126 0.258782,0.249907 0.748055,0.349079 1.109681,0.402738" />
  <path
     id="path859-59-9-7-8-3-2-2-0"
     style="font-variation-settings:normal;opacity:0.8;vector-effect:none;fill:none;fill-opacity:1;stroke:url(#linearGradient5732);stroke-width:0.999999;stroke-linecap:butt;stroke-linejoin:miter;stroke-miterlimit:4;stroke-dasharray:none;stroke-dashoffset:0;stroke-opacity:0.5;marker:none;stop-color:#000000"
     d="m 15.644167,22.486098 c 0.42869,0.06344 0.953471,-0.160186 1.367861,-0.798564 L 28.68001,5.6800885 C 29.114848,5.2554155 29.192546,4.2880158 28.358887,3.713717 27.289569,3.1640536 26.823496,3.8284595 26.560304,4.0133978 26.472214,4.0697797 16.011889,16.27476 16.011889,16.27476 c -0.05762,0.06643 -0.553122,0.521062 -0.641685,0.536341" />
</svg>
