<svg width="32" height="32" viewBox="0 0 32 32" fill="none" xmlns="http://www.w3.org/2000/svg">
<g clip-path="url(#clip0)">
<path opacity="0.15" d="M27.0502 28.5H4.9502V31H27.0502V28.5Z" fill="url(#paint0_linear)"/>
<path opacity="0.15" d="M4.95 28.5V30.9999C4.14339 31.0049 3 30.4398 3 29.7498C3 29.0598 3.90012 28.5 4.95 28.5Z" fill="url(#paint1_radial)"/>
<path opacity="0.15" d="M27.0498 28.5V30.9999C27.8564 31.0049 28.9998 30.4398 28.9998 29.7498C28.9998 29.0598 28.0997 28.5 27.0498 28.5V28.5Z" fill="url(#paint2_radial)"/>
<path d="M26.25 0.5H5.75C5.05964 0.5 4.5 1.05964 4.5 1.75V28.25C4.5 28.9404 5.05964 29.5 5.75 29.5H26.25C26.9404 29.5 27.5 28.9404 27.5 28.25V1.75C27.5 1.05964 26.9404 0.5 26.25 0.5Z" fill="url(#paint3_radial)"/>
<path d="M26.25 0.785156H5.75C5.19772 0.785156 4.75 1.23287 4.75 1.78516V28.2852C4.75 28.8374 5.19772 29.2852 5.75 29.2852H26.25C26.8023 29.2852 27.25 28.8374 27.25 28.2852V1.78516C27.25 1.23287 26.8023 0.785156 26.25 0.785156Z" stroke="url(#paint4_linear)" stroke-linecap="round" stroke-linejoin="round"/>
<path opacity="0.3" d="M26.25 0.25H5.75C4.92157 0.25 4.25 0.921573 4.25 1.75V28.25C4.25 29.0784 4.92157 29.75 5.75 29.75H26.25C27.0784 29.75 27.75 29.0784 27.75 28.25V1.75C27.75 0.921573 27.0784 0.25 26.25 0.25Z" stroke="black"/>
<path opacity="0.3" d="M19.4307 12.5L20.9288 13.8483L15.8951 20.5L12 17.1442L13.2884 15.4363L15.5655 17.4139L19.4307 12.5Z" fill="white"/>
<path d="M19.4307 12L20.9288 13.3483L15.8951 20L12 16.6442L13.2884 14.9363L15.5655 16.9139L19.4307 12Z" fill="#206B00"/>
</g>
<defs>
<linearGradient id="paint0_linear" x1="13.3194" y1="28.5" x2="13.3194" y2="31" gradientUnits="userSpaceOnUse">
<stop stop-opacity="0"/>
<stop offset="0.5"/>
<stop offset="1" stop-opacity="0"/>
</linearGradient>
<radialGradient id="paint1_radial" cx="0" cy="0" r="1" gradientUnits="userSpaceOnUse" gradientTransform="translate(4.90217 29.7352) rotate(180) scale(1.83483 1.20588)">
<stop/>
<stop offset="1" stop-opacity="0"/>
</radialGradient>
<radialGradient id="paint2_radial" cx="0" cy="0" r="1" gradientUnits="userSpaceOnUse" gradientTransform="translate(27.0976 29.7352) scale(1.83483 1.20588)">
<stop/>
<stop offset="1" stop-opacity="0"/>
</radialGradient>
<radialGradient id="paint3_radial" cx="0" cy="0" r="1" gradientUnits="userSpaceOnUse" gradientTransform="translate(16 0.416646) rotate(90) scale(34.1202 27.0609)">
<stop stop-color="#FAFAFA"/>
<stop offset="1" stop-color="#E1E1E1"/>
</radialGradient>
<linearGradient id="paint4_linear" x1="16" y1="0.99953" x2="16" y2="28.9995" gradientUnits="userSpaceOnUse">
<stop stop-color="white"/>
<stop offset="0.0348787" stop-color="white" stop-opacity="0.235294"/>
<stop offset="0.964286" stop-color="white" stop-opacity="0.156863"/>
<stop offset="1" stop-color="white" stop-opacity="0.392157"/>
</linearGradient>
<clipPath id="clip0">
<rect width="32" height="32" fill="white"/>
</clipPath>
</defs>
</svg>
