<svg width="48" height="48" viewBox="0 0 48 48" fill="none" xmlns="http://www.w3.org/2000/svg">
<g clip-path="url(#clip0)">
<path opacity="0.15" d="M40.5753 42.75H7.42529V46.5H40.5753V42.75Z" fill="url(#paint0_linear)"/>
<path opacity="0.15" d="M7.425 42.75V46.4998C6.21508 46.5073 4.5 45.6596 4.5 44.6246C4.5 43.5896 5.85018 42.75 7.425 42.75Z" fill="url(#paint1_radial)"/>
<path opacity="0.15" d="M40.5747 42.75V46.4998C41.7846 46.5073 43.4997 45.6596 43.4997 44.6246C43.4997 43.5896 42.1495 42.75 40.5747 42.75V42.75Z" fill="url(#paint2_radial)"/>
<path d="M39.375 0.75H8.625C7.58947 0.75 6.75 1.58947 6.75 2.625V42.375C6.75 43.4105 7.58947 44.25 8.625 44.25H39.375C40.4105 44.25 41.25 43.4105 41.25 42.375V2.625C41.25 1.58947 40.4105 0.75 39.375 0.75Z" fill="url(#paint3_radial)"/>
<path d="M39.375 1.17773H8.625C7.79657 1.17773 7.125 1.84931 7.125 2.67773V42.4277C7.125 43.2562 7.79657 43.9277 8.625 43.9277H39.375C40.2034 43.9277 40.875 43.2562 40.875 42.4277V2.67773C40.875 1.84931 40.2034 1.17773 39.375 1.17773Z" stroke="url(#paint4_linear)" stroke-linecap="round" stroke-linejoin="round"/>
<path opacity="0.3" d="M39.375 0.375H8.625C7.38236 0.375 6.375 1.38236 6.375 2.625V42.375C6.375 43.6176 7.38236 44.625 8.625 44.625H39.375C40.6176 44.625 41.625 43.6176 41.625 42.375V2.625C41.625 1.38236 40.6176 0.375 39.375 0.375Z" stroke="black"/>
<path opacity="0.3" d="M29.1461 18.75L31.3933 20.7725L23.8427 30.75L18 25.7163L19.9326 23.1545L23.3483 26.1208L29.1461 18.75Z" fill="white"/>
<path d="M29.1461 18L31.3933 20.0225L23.8427 30L18 24.9663L19.9326 22.4045L23.3483 25.3708L29.1461 18Z" fill="#206B00"/>
</g>
<defs>
<linearGradient id="paint0_linear" x1="19.9791" y1="42.75" x2="19.9791" y2="46.5" gradientUnits="userSpaceOnUse">
<stop stop-opacity="0"/>
<stop offset="0.5"/>
<stop offset="1" stop-opacity="0"/>
</linearGradient>
<radialGradient id="paint1_radial" cx="0" cy="0" r="1" gradientUnits="userSpaceOnUse" gradientTransform="translate(7.35325 44.6028) rotate(180) scale(2.75224 1.80882)">
<stop/>
<stop offset="1" stop-opacity="0"/>
</radialGradient>
<radialGradient id="paint2_radial" cx="0" cy="0" r="1" gradientUnits="userSpaceOnUse" gradientTransform="translate(40.6465 44.6028) scale(2.75224 1.80882)">
<stop/>
<stop offset="1" stop-opacity="0"/>
</radialGradient>
<radialGradient id="paint3_radial" cx="0" cy="0" r="1" gradientUnits="userSpaceOnUse" gradientTransform="translate(24 0.624969) rotate(90) scale(51.1804 40.5913)">
<stop stop-color="#FAFAFA"/>
<stop offset="1" stop-color="#E1E1E1"/>
</radialGradient>
<linearGradient id="paint4_linear" x1="24" y1="1.4993" x2="24" y2="43.4993" gradientUnits="userSpaceOnUse">
<stop stop-color="white"/>
<stop offset="0.0348787" stop-color="white" stop-opacity="0.235294"/>
<stop offset="0.964286" stop-color="white" stop-opacity="0.156863"/>
<stop offset="1" stop-color="white" stop-opacity="0.392157"/>
</linearGradient>
<clipPath id="clip0">
<rect width="48" height="48" fill="white"/>
</clipPath>
</defs>
</svg>
