<?xml version="1.0" encoding="UTF-8" standalone="no"?>
<svg
   xmlns:dc="http://purl.org/dc/elements/1.1/"
   xmlns:cc="http://creativecommons.org/ns#"
   xmlns:rdf="http://www.w3.org/1999/02/22-rdf-syntax-ns#"
   xmlns:svg="http://www.w3.org/2000/svg"
   xmlns="http://www.w3.org/2000/svg"
   xmlns:xlink="http://www.w3.org/1999/xlink"
   id="svg3901"
   height="48"
   width="48"
   version="1.1">
  <defs
     id="defs3903">
    <linearGradient
       id="linearGradient5060">
      <stop
         offset="0"
         style="stop-color:#000000;stop-opacity:1"
         id="stop5062" />
      <stop
         offset="1"
         style="stop-color:#000000;stop-opacity:0"
         id="stop5064" />
    </linearGradient>
    <linearGradient
       id="linearGradient5048">
      <stop
         offset="0"
         style="stop-color:#000000;stop-opacity:0"
         id="stop5050" />
      <stop
         offset="0.5"
         style="stop-color:#000000;stop-opacity:1"
         id="stop5056" />
      <stop
         offset="1"
         style="stop-color:#000000;stop-opacity:0"
         id="stop5052" />
    </linearGradient>
    <radialGradient
       r="117.14286"
       fy="486.64789"
       fx="605.71429"
       cy="486.64789"
       cx="605.71429"
       gradientTransform="matrix(0.02303995,0,0,0.01470022,26.360882,37.040176)"
       gradientUnits="userSpaceOnUse"
       id="radialGradient3112"
       xlink:href="#linearGradient5060" />
    <radialGradient
       r="117.14286"
       fy="486.64789"
       fx="605.71429"
       cy="486.64789"
       cx="605.71429"
       gradientTransform="matrix(-0.02303994,0,0,0.01470022,21.62311,37.040176)"
       gradientUnits="userSpaceOnUse"
       id="radialGradient3115"
       xlink:href="#linearGradient5060" />
    <linearGradient
       y2="609.50507"
       x2="302.85715"
       y1="366.64789"
       x1="302.85715"
       gradientTransform="matrix(0.06732488,0,0,0.01470022,-0.3411391,37.040146)"
       gradientUnits="userSpaceOnUse"
       id="linearGradient3118"
       xlink:href="#linearGradient5048" />
    <linearGradient
       x1="23.999998"
       y1="5.9404678"
       x2="23.999998"
       y2="42.032551"
       id="linearGradient3084"
       xlink:href="#linearGradient3924"
       gradientUnits="userSpaceOnUse"
       gradientTransform="matrix(0.89189189,0,0,1.1351352,2.5945965,-4.7432342)" />
    <linearGradient
       id="linearGradient3924">
      <stop
         id="stop3926"
         style="stop-color:#ffffff;stop-opacity:1"
         offset="0" />
      <stop
         id="stop3928"
         style="stop-color:#ffffff;stop-opacity:0.23529412"
         offset="0.02440847" />
      <stop
         id="stop3930"
         style="stop-color:#ffffff;stop-opacity:0.15686275"
         offset="0.97633857" />
      <stop
         id="stop3932"
         style="stop-color:#ffffff;stop-opacity:0.39215687"
         offset="1" />
    </linearGradient>
    <linearGradient
       xlink:href="#linearGradient909"
       id="linearGradient903"
       x1="14.329722"
       y1="29.604652"
       x2="14.329722"
       y2="-0.070297658"
       gradientUnits="userSpaceOnUse"
       gradientTransform="matrix(1.3076923,0,0,1.6538461,3.0769235,-48.96154)" />
    <linearGradient
       id="linearGradient909">
      <stop
         id="stop905"
         style="stop-color:#fafafa;stop-opacity:1"
         offset="0" />
      <stop
         id="stop907"
         style="stop-color:#d4d4d4;stop-opacity:1"
         offset="1" />
    </linearGradient>
    <linearGradient
       xlink:href="#linearGradient1411"
       id="linearGradient2068-3-3"
       gradientUnits="userSpaceOnUse"
       x1="32.497078"
       y1="103.04086"
       x2="32.497078"
       y2="131.95612"
       gradientTransform="matrix(0.74437929,0,0,0.75176742,0.14520691,-66.334717)" />
    <linearGradient
       id="linearGradient1411">
      <stop
         id="stop1407"
         style="stop-color:#9bdb4d;stop-opacity:1"
         offset="0" />
      <stop
         id="stop1409"
         style="stop-color:#28bca3;stop-opacity:1"
         offset="1" />
    </linearGradient>
    <linearGradient
       xlink:href="#linearGradient1417"
       id="linearGradient1419"
       x1="38.01841"
       y1="103.11567"
       x2="38.01841"
       y2="131.87903"
       gradientUnits="userSpaceOnUse"
       gradientTransform="matrix(0.74437929,0,0,0.75176742,0.14520691,-66.334717)" />
    <linearGradient
       id="linearGradient1417">
      <stop
         style="stop-color:#206b00;stop-opacity:1"
         offset="0"
         id="stop1413" />
      <stop
         style="stop-color:#007367;stop-opacity:1"
         offset="1"
         id="stop1415" />
    </linearGradient>
    <linearGradient
       xlink:href="#linearGradient1915"
       id="linearGradient1391"
       gradientUnits="userSpaceOnUse"
       gradientTransform="matrix(0.71487055,0,0,0.73165017,0.99101801,-63.8651)"
       x1="33.947651"
       y1="121.9751"
       x2="28.963943"
       y2="130.94566" />
    <linearGradient
       id="linearGradient1915">
      <stop
         id="stop1907"
         style="stop-color:#ffffff;stop-opacity:1"
         offset="0" />
      <stop
         id="stop1909"
         style="stop-color:#ffffff;stop-opacity:0.23529412"
         offset="0.30000019" />
      <stop
         id="stop1911"
         style="stop-color:#ffffff;stop-opacity:0.15686275"
         offset="0.5" />
      <stop
         id="stop1913"
         style="stop-color:#ffffff;stop-opacity:0.39215687"
         offset="1" />
    </linearGradient>
    <linearGradient
       xlink:href="#linearGradient1825"
       id="linearGradient1393"
       gradientUnits="userSpaceOnUse"
       gradientTransform="matrix(0.73250726,0,0,0.72971992,0.57531632,-63.718665)"
       x1="30.957426"
       y1="112.0078"
       x2="38.931358"
       y2="128.95221" />
    <linearGradient
       id="linearGradient1825">
      <stop
         id="stop1817"
         style="stop-color:#ffffff;stop-opacity:1"
         offset="0" />
      <stop
         id="stop1819"
         style="stop-color:#ffffff;stop-opacity:0.23529412"
         offset="0.33333337" />
      <stop
         id="stop1821"
         style="stop-color:#ffffff;stop-opacity:0.15686275"
         offset="0.42857167" />
      <stop
         id="stop1823"
         style="stop-color:#ffffff;stop-opacity:0.39215687"
         offset="1" />
    </linearGradient>
  </defs>
  <metadata
     id="metadata3906">
    <rdf:RDF>
      <cc:Work
         rdf:about="">
        <dc:format>image/svg+xml</dc:format>
        <dc:type
           rdf:resource="http://purl.org/dc/dcmitype/StillImage" />
        <dc:title></dc:title>
      </cc:Work>
    </rdf:RDF>
  </metadata>
  <rect
     width="32.508301"
     height="3.5700529"
     x="7.7378473"
     y="42.429947"
     id="rect2879"
     style="opacity:0.3;fill:url(#linearGradient3118);fill-opacity:1;fill-rule:nonzero;stroke:none;stroke-width:1;marker:none;visibility:visible;display:inline;overflow:visible" />
  <path
     d="m 7.7378475,42.430102 c 0,0 0,3.569856 0,3.569856 -1.1865002,0.0067 -2.8683795,-0.799823 -2.8683795,-1.785158 0,-0.985333 1.3240446,-1.784697 2.8683795,-1.784698 z"
     id="path2881"
     style="opacity:0.3;fill:url(#radialGradient3115);fill-opacity:1;fill-rule:nonzero;stroke:none;stroke-width:1;marker:none;visibility:visible;display:inline;overflow:visible" />
  <path
     d="m 40.246148,42.430102 c 0,0 0,3.569856 0,3.569856 1.1865,0.0067 2.86838,-0.799823 2.86838,-1.785158 0,-0.985333 -1.324045,-1.784697 -2.86838,-1.784698 z"
     id="path2883"
     style="opacity:0.3;fill:url(#radialGradient3112);fill-opacity:1;fill-rule:nonzero;stroke:none;stroke-width:1;marker:none;visibility:visible;display:inline;overflow:visible" />
  <rect
     transform="scale(1,-1)"
     width="34"
     height="43"
     rx="1.5"
     ry="1.5"
     x="7"
     y="-44"
     id="rect5505-6"
     style="color:#000000;display:inline;overflow:visible;visibility:visible;fill:url(#linearGradient903);fill-opacity:1;fill-rule:nonzero;stroke:none;stroke-width:1;marker:none;enable-background:accumulate" />
  <rect
     width="35"
     height="44"
     rx="2"
     ry="1.9999999"
     x="6.5"
     y="0.50000006"
     id="rect5505-21"
     style="color:#000000;display:inline;overflow:visible;visibility:visible;opacity:0.5;vector-effect:none;fill:none;fill-opacity:1;fill-rule:nonzero;stroke:#555761;stroke-width:1;stroke-linecap:round;stroke-linejoin:round;stroke-miterlimit:4;stroke-dasharray:none;stroke-dashoffset:0;stroke-opacity:1;marker:none;enable-background:accumulate" />
  <rect
     width="33"
     height="42.000004"
     rx="1"
     ry="0.99999994"
     x="7.5"
     y="1.4999981"
     id="rect6741-2"
     style="fill:none;stroke:url(#linearGradient3084);stroke-width:0.999997;stroke-linecap:round;stroke-linejoin:round;stroke-miterlimit:4;stroke-dasharray:none;stroke-dashoffset:0;stroke-opacity:1" />
  <path
     id="path859-59-98-9-4-3-6-9"
     style="font-variation-settings:normal;opacity:0.15;vector-effect:none;fill:#d1ff82;fill-opacity:1;stroke:none;stroke-width:0.999999;stroke-linecap:butt;stroke-linejoin:miter;stroke-miterlimit:4;stroke-dasharray:none;stroke-dashoffset:0;stroke-opacity:0.5;marker:none;stop-color:#000000;stop-opacity:1"
     transform="translate(0,1.0054089)"
     d="m 34.917969,8.9804688 c -1.190886,-0.1821076 -2.472544,0.056957 -3.5625,0.7851562 a 2.07281,2.07281 0 0 0 -0.002,0.00195 2.07281,2.07281 0 0 0 -0.214844,0.1660157 c -0.110227,0.083085 -0.227346,0.1704092 -0.376953,0.3085942 a 2.07281,2.07281 0 0 0 -0.21875,0.238281 c -0.03716,0.04046 -0.08576,0.06032 -0.121094,0.103515 a 2.07281,2.07281 0 0 0 -0.002,0.0039 2.07281,2.07281 0 0 0 -0.02148,0.02734 l -8.166016,10.003907 -2.685547,-2.882813 a 2.07281,2.07281 0 0 0 -0.0293,-0.0332 l -0.03516,-0.03711 a 2.07281,2.07281 0 0 0 -0.0059,-0.0078 c -1.502483,-1.600802 -3.829946,-1.92015 -5.755859,-1.017578 a 2.07281,2.07281 0 0 0 -0.671875,0.291016 2.07281,2.07281 0 0 0 -0.0059,0.0039 c -0.268971,0.179651 -0.311562,0.268407 -0.408203,0.382812 -1.634783,1.397092 -2.093622,3.759036 -1.113282,5.695313 3.96e-4,7.81e-4 0.0016,0.0012 0.002,0.002 0.104884,0.206861 0.156912,0.428633 0.296874,0.623047 0.0036,0.0072 0.01074,0.01955 0.01367,0.02539 0.01862,0.02552 0.01982,0.05677 0.03906,0.08203 a 2.07281,2.07281 0 0 0 0.0059,0.0059 c 3e-6,6e-6 10e-7,0.002 0,0.002 a 2.07281,2.07281 0 0 0 0.002,0.002 c 9.2e-5,1.79e-4 0.0039,0.0078 0.0039,0.0078 l 6.988281,9.503906 c 0.05205,0.07085 0.130969,0.173825 0.255859,0.302734 a 2.07281,2.07281 0 0 0 0.0059,0.0039 2.07281,2.07281 0 0 0 0.578125,0.419922 2.07281,2.07281 0 0 0 0.002,0 c 1.500004,1.139939 3.476317,1.32425 5.152344,0.521484 0.220982,-0.07199 0.442959,-0.147029 0.636718,-0.275391 a 2.07281,2.07281 0 0 0 0.0078,-0.0059 c 0.522457,-0.349546 0.958076,-0.789778 1.296875,-1.28125 l 11.326172,-16.404297 -0.132813,0.13086 a 2.07281,2.07281 0 0 0 0,-0.002 c 0.0033,-0.0033 0.0065,-0.0064 0.0098,-0.0098 a 2.07281,2.07281 0 0 0 0.07422,-0.07617 2.07281,2.07281 0 0 0 0.0098,-0.01172 2.07281,2.07281 0 0 0 0.06836,-0.08008 2.07281,2.07281 0 0 0 0.0098,-0.01172 2.07281,2.07281 0 0 0 0.0625,-0.08594 2.07281,2.07281 0 0 0 0.0078,-0.01172 2.07281,2.07281 0 0 0 0.002,-0.002 2.07281,2.07281 0 0 0 0.0059,-0.0078 c 8.45e-4,-0.0012 0.0011,-0.0027 0.002,-0.0039 0.0067,-0.0099 0.01295,-0.02123 0.01953,-0.03125 l -0.01758,0.02148 c 0.881407,-1.291342 0.831847,-2.876337 0.271485,-4.310547 a 2.07281,2.07281 0 0 0 -0.425782,-1.210938 2.07281,2.07281 0 0 0 -0.0039,-0.0059 C 37.282018,9.7819786 36.112441,9.1631325 34.917969,8.9804688 Z m -23.033203,14.7832032 -0.0059,-0.0098 -0.02148,-0.02539 z M 31.074219,9.9921875 a 2.07281,2.07281 0 0 0 -0.01367,0.013671 c -0.01241,0.01125 -0.02687,0.01976 -0.03906,0.03125 z m -5.835938,24.3808595 -0.0957,0.03906 c 0.01927,-0.01067 0.04139,-0.0125 0.06055,-0.02344 0.0041,-0.0019 0.03512,-0.0156 0.03516,-0.01563 z" />
  <path
     id="path859-59-98-9-4-3-6"
     style="font-variation-settings:normal;opacity:0.15;vector-effect:none;fill:#68b723;fill-opacity:1;stroke:none;stroke-width:0.999999;stroke-linecap:butt;stroke-linejoin:miter;stroke-miterlimit:4;stroke-dasharray:none;stroke-dashoffset:0;stroke-opacity:0.5;marker:none;stop-color:#000000;stop-opacity:1"
     d="M 34.767578,9.9667969 C 33.810142,9.8203879 32.782346,10.01104 31.910156,10.59375 a 1.0757376,1.0757376 0 0 0 -0.002,0.002 1.0757376,1.0757376 0 0 0 -0.138672,0.109375 1.0757376,1.0757376 0 0 0 -0.0098,0.01172 c -0.01195,0.01027 -0.02547,0.01867 -0.03711,0.0293 l 0.04687,-0.04102 c -0.10461,0.07864 -0.214302,0.160791 -0.332031,0.269531 a 1.0757376,1.0757376 0 0 0 -0.123047,0.136719 c -0.03784,0.03883 -0.08611,0.06076 -0.121094,0.103516 a 1.0757376,1.0757376 0 0 0 -0.002,0.0039 1.0757376,1.0757376 0 0 0 -0.01172,0.01563 L 22.28125,22.136719 18.787109,18.382812 A 1.0757376,1.0757376 0 0 0 18.75,18.339844 c -1.338189,-1.425757 -3.530933,-1.654103 -5.150391,-0.578125 a 1.0757376,1.0757376 0 0 0 -0.0039,0.002 c -0.175114,0.116962 -0.222628,0.194922 -0.289062,0.27539 -1.384649,1.154234 -1.74563,3.158793 -0.820313,4.728516 0.0022,0.0098 0.0058,0.02919 0.0059,0.0293 1.22e-4,4.26e-4 0.118351,0.233683 0.15625,0.308594 0.0085,0.01149 0.0089,0.02569 0.01758,0.03711 a 1.0757376,1.0757376 0 0 0 0.002,0.002 c 2.54e-4,4.99e-4 0.0038,0.0076 0.0039,0.0078 4.6e-5,8.8e-5 0.002,0.0039 0.002,0.0039 l 7.001953,9.519531 c 0.03803,0.05177 0.08995,0.120641 0.167969,0.201172 a 1.0757376,1.0757376 0 0 0 0.0039,0.002 1.0757376,1.0757376 0 0 0 0.640625,0.316406 c 1.255142,0.872142 2.853074,1.084512 4.195313,0.330079 0.09066,-0.03816 0.187531,-0.06287 0.269531,-0.117188 a 1.0757376,1.0757376 0 0 0 0.0039,-0.002 c 0.414021,-0.276997 0.761063,-0.627707 1.03125,-1.019531 l 11.376953,-16.478516 -0.06836,0.06641 a 1.0757376,1.0757376 0 0 0 0.002,-0.0039 l 0.0059,-0.0059 a 1.0757376,1.0757376 0 0 0 0.06055,-0.06445 1.0757376,1.0757376 0 0 0 0.03516,-0.04492 1.0757376,1.0757376 0 0 0 0.01758,-0.02344 1.0757376,1.0757376 0 0 0 0.0098,-0.01367 c 4.85e-4,-7.16e-4 0.0015,-0.0012 0.002,-0.002 3.68e-4,-5.35e-4 -3.68e-4,-0.0014 0,-0.002 0.0033,-0.0049 0.0065,-0.01066 0.0098,-0.01563 l -0.0078,0.0078 c 0.761914,-1.115378 0.707496,-2.522697 0.09961,-3.72461 a 1.0757376,1.0757376 0 0 0 -0.220703,-0.628906 1.0757376,1.0757376 0 0 0 -0.002,-0.0039 c -0.648091,-0.84056 -1.581475,-1.335685 -2.541016,-1.4824221 z m -21.167969,7.7949221 0.597657,-0.179688 c -0.002,-4e-6 -0.0038,-4e-6 -0.0059,0 a 1.0757376,1.0757376 0 0 0 -0.591797,0.179688 z m -1.111328,5.009765 c 0.0458,0.07748 0.06285,0.163199 0.115235,0.238282 -0.05215,-0.103729 -0.111416,-0.219055 -0.111328,-0.21875 2.1e-5,7.4e-5 -0.0028,-0.01459 -0.0039,-0.01953 z"
     transform="translate(0,1.0054089)" />
  <path
     id="path859-59-98-9-4-3"
     style="font-variation-settings:normal;opacity:0.3;vector-effect:none;fill:#007367;fill-opacity:1;stroke:none;stroke-width:0.999999;stroke-linecap:butt;stroke-linejoin:miter;stroke-miterlimit:4;stroke-dasharray:none;stroke-dashoffset:0;stroke-opacity:0.5;marker:none;stop-color:#000000;stop-opacity:1"
     d="m 34.605469,11.029297 c -0.705569,-0.107894 -1.460415,0.03324 -2.097657,0.458984 a 0.50500489,0.50500489 0 0 0 -0.002,0.002 0.50500489,0.50500489 0 0 0 -0.07227,0.05859 c -0.0016,0.0016 -0.0043,0.0043 -0.0059,0.0059 -0.09471,0.07107 -0.187006,0.143733 -0.259765,0.210937 l 0.08789,-0.06445 c -0.08772,0.05117 -0.166337,0.116917 -0.230468,0.195312 a 0.50500489,0.50500489 0 0 0 0,0.002 l -9.689453,11.873046 -4.371094,-4.693359 a 0.50500489,0.50500489 0 0 0 0,-0.002 c -0.973601,-1.037311 -2.582231,-1.206819 -3.769532,-0.417969 a 0.50500489,0.50500489 0 0 0 -0.002,0 c -0.07079,0.04728 -0.124116,0.113812 -0.177734,0.179688 -1.100371,0.892921 -1.370771,2.501326 -0.494141,3.652343 l 0.0039,0.0039 c 0.0013,0.0017 6.47e-4,0.0042 0.002,0.0059 l 7.015625,9.539062 c 0.0229,0.03118 0.04727,0.06203 0.07422,0.08984 a 0.50500489,0.50500489 0 0 0 0.002,0 c 0.937053,0.962616 2.418557,1.122273 3.572265,0.455078 0.0018,-0.001 0.0041,-9.04e-4 0.0059,-0.002 a 0.50500489,0.50500489 0 0 0 0.162109,-0.07031 c 0.297814,-0.19925 0.547747,-0.451095 0.744141,-0.736328 l 11.43164,-16.558594 0.002,-0.002 a 0.50500489,0.50500489 0 0 0 0.0039,-0.0059 0.50500489,0.50500489 0 0 0 0.002,-0.002 c 0.63592,-0.92534 0.621571,-2.177955 -0.08594,-3.099609 a 0.50500489,0.50500489 0 0 0 0,-0.002 C 35.989707,11.49936 35.311544,11.137273 34.605469,11.029297 Z"
     transform="translate(0,1.0054089)" />
  <path
     id="path859-59-98-9-4"
     style="font-variation-settings:normal;vector-effect:none;fill:url(#linearGradient2068-3-3);fill-opacity:1;stroke:url(#linearGradient1419);stroke-width:1;stroke-linecap:butt;stroke-linejoin:miter;stroke-miterlimit:4;stroke-dasharray:none;stroke-dashoffset:0;stroke-opacity:0.5;marker:none;stop-color:#000000"
     d="m 34.529133,11.529008 c -0.587963,-0.08991 -1.21366,0.02698 -1.740277,0.378815 a 0.34622076,0.34965707 0 0 0 -0.0015,0.0015 c -0.09985,0.06706 -0.189634,0.146249 -0.277689,0.227581 a 0.34622076,0.34965707 0 0 0 -0.0945,0.08075 l -10.053461,12.321922 -4.765772,-5.11701 a 0.34622076,0.34965707 0 0 0 0,-0.0015 c -0.801086,-0.853507 -2.13823,-0.99681 -3.121416,-0.343575 a 0.34622076,0.34965707 0 0 0 -0.09886,0.101315 c -0.951552,0.72675 -1.180504,2.059806 -0.447791,3.012943 l 7.022172,9.548325 a 0.34622076,0.34965707 0 0 0 0.03053,0.03669 c 0.806411,0.828409 2.124903,0.959082 3.09528,0.314215 a 0.34622076,0.34965707 0 0 0 0.0015,0 c 0.242754,-0.162412 0.44892,-0.367148 0.610624,-0.602 L 36.125516,14.922212 a 0.34622076,0.34965707 0 0 0 0.0015,0 c 0.514389,-0.748498 0.506035,-1.757737 -0.06979,-2.50785 -0.382446,-0.496025 -0.940109,-0.795477 -1.528012,-0.885382 z" />
  <path
     id="path859-59-9-4-7-5"
     style="font-variation-settings:normal;opacity:0.6;vector-effect:none;fill:none;fill-opacity:1;stroke:url(#linearGradient1391);stroke-width:1;stroke-linecap:butt;stroke-linejoin:miter;stroke-miterlimit:4;stroke-dasharray:none;stroke-dashoffset:0;stroke-opacity:0.5;marker:none;stop-color:#000000"
     d="m 22.409032,25.797835 c -0.120342,0.02348 -0.244088,-0.01735 -0.328439,-0.108252 L 17.245894,20.52349 c -0.328817,-0.354456 -0.817282,-0.855241 -1.294848,-0.82831 -0.286541,0.01619 -0.566175,-0.0091 -0.813555,0.156423 -0.0014,7.29e-4 -0.0029,0.0022 -0.0042,0.003 -0.707646,0.478669 -0.856297,1.348528 -0.35905,2.004035 l 6.861053,9.077537 c 0.243247,0.249734 0.566064,0.400742 0.905982,0.454364" />
  <path
     id="path859-59-9-7-8-3-2"
     style="font-variation-settings:normal;opacity:0.8;vector-effect:none;fill:none;fill-opacity:1;stroke:url(#linearGradient1393);stroke-width:1;stroke-linecap:butt;stroke-linejoin:miter;stroke-miterlimit:4;stroke-dasharray:none;stroke-dashoffset:0;stroke-opacity:0.5;marker:none;stop-color:#000000"
     d="m 22.521702,31.478467 c 0.413321,0.06342 0.763513,-0.04446 1.12385,-0.280621 0.165985,-0.109544 0.392377,-0.430326 0.498959,-0.583007 h 0.0015 L 35.132089,14.53201 c 0.338301,-0.48559 0.604835,-0.88417 0.220867,-1.37752 -0.255505,-0.326384 -0.636175,-0.532867 -1.049548,-0.595221 -0.103414,-0.01564 -0.208799,-0.02117 -0.313718,-0.01847 l 2.9e-5,-2.1e-5 c -0.314747,0.0082 -0.440556,0.08727 -0.712686,0.266592 L 22.692151,25.694814 c -0.05557,0.0664 -0.132795,0.111159 -0.218182,0.126432" />
</svg>
