<?xml version="1.0" encoding="UTF-8" standalone="no"?>
<svg
   xmlns:dc="http://purl.org/dc/elements/1.1/"
   xmlns:cc="http://creativecommons.org/ns#"
   xmlns:rdf="http://www.w3.org/1999/02/22-rdf-syntax-ns#"
   xmlns:svg="http://www.w3.org/2000/svg"
   xmlns="http://www.w3.org/2000/svg"
   xmlns:xlink="http://www.w3.org/1999/xlink"
   version="1.1"
   width="64"
   height="64"
   id="svg3844">
  <defs
     id="defs3846">
    <linearGradient
       id="linearGradient1667">
      <stop
         id="stop1663"
         style="stop-color:#f4679d;stop-opacity:1"
         offset="0" />
      <stop
         id="stop1665"
         style="stop-color:#de3e80;stop-opacity:1"
         offset="1" />
    </linearGradient>
    <linearGradient
       id="linearGradient1417">
      <stop
         style="stop-color:#206b00;stop-opacity:1"
         offset="0"
         id="stop1413" />
      <stop
         style="stop-color:#007367;stop-opacity:1"
         offset="1"
         id="stop1415" />
    </linearGradient>
    <linearGradient
       id="linearGradient1411">
      <stop
         id="stop1407"
         style="stop-color:#9bdb4d;stop-opacity:1"
         offset="0" />
      <stop
         id="stop1409"
         style="stop-color:#28bca3;stop-opacity:1"
         offset="1" />
    </linearGradient>
    <linearGradient
       id="linearGradient1247">
      <stop
         id="stop1243"
         style="stop-color:#9bdb4d;stop-opacity:1"
         offset="0" />
      <stop
         id="stop1245"
         style="stop-color:#68b723;stop-opacity:1"
         offset="1" />
    </linearGradient>
    <linearGradient
       id="linearGradient1915">
      <stop
         id="stop1907"
         style="stop-color:#ffffff;stop-opacity:1"
         offset="0" />
      <stop
         id="stop1909"
         style="stop-color:#ffffff;stop-opacity:0.23529412"
         offset="0.30000019" />
      <stop
         id="stop1911"
         style="stop-color:#ffffff;stop-opacity:0.15686275"
         offset="0.5" />
      <stop
         id="stop1913"
         style="stop-color:#ffffff;stop-opacity:0.39215687"
         offset="1" />
    </linearGradient>
    <linearGradient
       id="linearGradient1825">
      <stop
         id="stop1817"
         style="stop-color:#ffffff;stop-opacity:1"
         offset="0" />
      <stop
         id="stop1819"
         style="stop-color:#ffffff;stop-opacity:0.23529412"
         offset="0.33333337" />
      <stop
         id="stop1821"
         style="stop-color:#ffffff;stop-opacity:0.15686275"
         offset="0.42857167" />
      <stop
         id="stop1823"
         style="stop-color:#ffffff;stop-opacity:0.39215687"
         offset="1" />
    </linearGradient>
    <linearGradient
       id="linearGradient5060">
      <stop
         id="stop5062"
         style="stop-color:#000000;stop-opacity:1"
         offset="0" />
      <stop
         id="stop5064"
         style="stop-color:#000000;stop-opacity:0"
         offset="1" />
    </linearGradient>
    <linearGradient
       id="linearGradient5048">
      <stop
         id="stop5050"
         style="stop-color:#000000;stop-opacity:0"
         offset="0" />
      <stop
         id="stop5056"
         style="stop-color:#000000;stop-opacity:1"
         offset="0.5" />
      <stop
         id="stop5052"
         style="stop-color:#000000;stop-opacity:0"
         offset="1" />
    </linearGradient>
    <linearGradient
       id="linearGradient4632-92-3-0-8-1">
      <stop
         id="stop4634-68-8-0-2-9"
         style="stop-color:#fafafa;stop-opacity:1"
         offset="0" />
      <stop
         id="stop4636-8-21-7-1-4"
         style="stop-color:#e1e1e1;stop-opacity:1"
         offset="1" />
    </linearGradient>
    <linearGradient
       id="linearGradient3924-2-2-5-8-0">
      <stop
         id="stop3926-9-4-9-6-3"
         style="stop-color:#ffffff;stop-opacity:1"
         offset="0" />
      <stop
         id="stop3928-9-8-6-5-0"
         style="stop-color:#ffffff;stop-opacity:0.23529412"
         offset="0.03487874" />
      <stop
         id="stop3930-3-5-1-7-4"
         style="stop-color:#ffffff;stop-opacity:0.15686275"
         offset="0.96428573" />
      <stop
         id="stop3932-8-0-4-8-4"
         style="stop-color:#ffffff;stop-opacity:0.39215687"
         offset="1" />
    </linearGradient>
    <radialGradient
       cx="605.71429"
       cy="486.64789"
       r="117.14286"
       fx="605.71429"
       fy="486.64789"
       id="radialGradient3156-6-3-5"
       xlink:href="#linearGradient5060"
       gradientUnits="userSpaceOnUse"
       gradientTransform="matrix(-0.03132632,0,0,0.02058823,28.77914,-30.54858)" />
    <radialGradient
       cx="605.71429"
       cy="486.64789"
       r="117.14286"
       fx="605.71429"
       fy="486.64789"
       id="radialGradient3153-5-6-62"
       xlink:href="#linearGradient5060"
       gradientUnits="userSpaceOnUse"
       gradientTransform="matrix(0.03132633,0,0,0.02058823,35.22086,-30.54858)" />
    <linearGradient
       xlink:href="#linearGradient1247"
       id="linearGradient2068-3"
       gradientUnits="userSpaceOnUse"
       x1="32.497078"
       y1="103.04086"
       x2="32.497078"
       y2="131.95612" />
    <linearGradient
       xlink:href="#linearGradient5048"
       id="linearGradient1221"
       gradientUnits="userSpaceOnUse"
       gradientTransform="matrix(0.09153846,0,0,0.02058823,-1.08462,-30.54858)"
       x1="302.85715"
       y1="366.64789"
       x2="302.85715"
       y2="609.50507" />
    <linearGradient
       xlink:href="#linearGradient4632-92-3-0-8-1"
       id="linearGradient1223"
       gradientUnits="userSpaceOnUse"
       gradientTransform="translate(-76,-168)"
       x1="109.0365"
       y1="91.785919"
       x2="109.0365"
       y2="147.19049" />
    <linearGradient
       xlink:href="#linearGradient3924-2-2-5-8-0"
       id="linearGradient1225"
       gradientUnits="userSpaceOnUse"
       gradientTransform="matrix(1.2162162,0,0,1.5405406,2.81081,-86.901716)"
       x1="24.000004"
       y1="5.7783065"
       x2="24.000004"
       y2="42.129181" />
    <linearGradient
       xlink:href="#linearGradient1915"
       id="linearGradient1227"
       gradientUnits="userSpaceOnUse"
       gradientTransform="matrix(1.003269,0,0,1.0032809,-0.05863,-168.37529)"
       x1="33.947651"
       y1="121.9751"
       x2="28.963943"
       y2="130.94566" />
    <linearGradient
       xlink:href="#linearGradient1825"
       id="linearGradient1229"
       gradientUnits="userSpaceOnUse"
       gradientTransform="matrix(1.003269,0,0,1.0032809,-0.05863,-168.37529)"
       x1="30.957426"
       y1="112.0078"
       x2="38.931358"
       y2="128.95221" />
    <radialGradient
       cx="605.71429"
       cy="486.64789"
       r="117.14286"
       fx="605.71429"
       fy="486.64789"
       id="radialGradient3156-6-3-5-9"
       xlink:href="#linearGradient5060"
       gradientUnits="userSpaceOnUse"
       gradientTransform="matrix(-0.03132632,0,0,0.02058823,28.77914,49.45142)" />
    <radialGradient
       cx="605.71429"
       cy="486.64789"
       r="117.14286"
       fx="605.71429"
       fy="486.64789"
       id="radialGradient3153-5-6-62-9"
       xlink:href="#linearGradient5060"
       gradientUnits="userSpaceOnUse"
       gradientTransform="matrix(0.03132633,0,0,0.02058823,35.22086,49.45142)" />
    <linearGradient
       xlink:href="#linearGradient1411"
       id="linearGradient2068-3-3"
       gradientUnits="userSpaceOnUse"
       x1="32.497078"
       y1="103.04086"
       x2="32.497078"
       y2="131.95612"
       gradientTransform="matrix(1.003269,0,0,1.0032809,-0.05863,-88.375289)" />
    <linearGradient
       xlink:href="#linearGradient5048"
       id="linearGradient1385"
       gradientUnits="userSpaceOnUse"
       gradientTransform="matrix(0.09153846,0,0,0.02058823,-1.08462,49.45142)"
       x1="302.85715"
       y1="366.64789"
       x2="302.85715"
       y2="609.50507" />
    <linearGradient
       xlink:href="#linearGradient4632-92-3-0-8-1"
       id="linearGradient1387"
       gradientUnits="userSpaceOnUse"
       gradientTransform="translate(-76,-88)"
       x1="109.0365"
       y1="91.785919"
       x2="109.0365"
       y2="147.19049" />
    <linearGradient
       xlink:href="#linearGradient3924-2-2-5-8-0"
       id="linearGradient1389"
       gradientUnits="userSpaceOnUse"
       gradientTransform="matrix(1.2162162,0,0,1.5405406,2.81081,-6.901716)"
       x1="24.000004"
       y1="5.7783065"
       x2="24.000004"
       y2="42.129181" />
    <linearGradient
       xlink:href="#linearGradient1915"
       id="linearGradient1391"
       gradientUnits="userSpaceOnUse"
       gradientTransform="matrix(1.003269,0,0,1.0032809,-0.05863,-88.375289)"
       x1="33.947651"
       y1="121.9751"
       x2="28.963943"
       y2="130.94566" />
    <linearGradient
       xlink:href="#linearGradient1825"
       id="linearGradient1393"
       gradientUnits="userSpaceOnUse"
       gradientTransform="matrix(1.003269,0,0,1.0032809,-0.05863,-88.375289)"
       x1="30.957426"
       y1="112.0078"
       x2="38.931358"
       y2="128.95221" />
    <linearGradient
       xlink:href="#linearGradient1417"
       id="linearGradient1419"
       x1="38.01841"
       y1="103.11567"
       x2="38.01841"
       y2="131.87903"
       gradientUnits="userSpaceOnUse"
       gradientTransform="matrix(1.003269,0,0,1.0032809,-0.05863,-88.375289)" />
    <radialGradient
       cx="605.71429"
       cy="486.64789"
       r="117.14286"
       fx="605.71429"
       fy="486.64789"
       id="radialGradient3156-6-3-5-9-4"
       xlink:href="#linearGradient5060"
       gradientUnits="userSpaceOnUse"
       gradientTransform="matrix(-0.03132632,0,0,0.02058823,-41.22086,49.45142)" />
    <radialGradient
       cx="605.71429"
       cy="486.64789"
       r="117.14286"
       fx="605.71429"
       fy="486.64789"
       id="radialGradient3153-5-6-62-9-0"
       xlink:href="#linearGradient5060"
       gradientUnits="userSpaceOnUse"
       gradientTransform="matrix(0.03132633,0,0,0.02058823,-34.77914,49.45142)" />
    <linearGradient
       xlink:href="#linearGradient1667"
       id="linearGradient2068-3-3-3"
       gradientUnits="userSpaceOnUse"
       x1="32.497078"
       y1="103.04086"
       x2="32.497078"
       y2="131.95612"
       gradientTransform="matrix(1.003269,0,0,1.0032809,-70.05863,-88.375289)" />
    <linearGradient
       xlink:href="#linearGradient5048"
       id="linearGradient1633"
       gradientUnits="userSpaceOnUse"
       gradientTransform="matrix(0.09153846,0,0,0.02058823,-71.08462,49.45142)"
       x1="302.85715"
       y1="366.64789"
       x2="302.85715"
       y2="609.50507" />
    <linearGradient
       xlink:href="#linearGradient4632-92-3-0-8-1"
       id="linearGradient1635"
       gradientUnits="userSpaceOnUse"
       gradientTransform="translate(-146,-88)"
       x1="109.0365"
       y1="91.785919"
       x2="109.0365"
       y2="147.19049" />
    <linearGradient
       xlink:href="#linearGradient3924-2-2-5-8-0"
       id="linearGradient1637"
       gradientUnits="userSpaceOnUse"
       gradientTransform="matrix(1.2162162,0,0,1.5405406,-67.18919,-6.901716)"
       x1="24.000004"
       y1="5.7783065"
       x2="24.000004"
       y2="42.129181" />
    <linearGradient
       xlink:href="#linearGradient1915"
       id="linearGradient1641"
       gradientUnits="userSpaceOnUse"
       gradientTransform="matrix(1.003269,0,0,1.0032809,-70.05863,-88.375289)"
       x1="33.947651"
       y1="121.9751"
       x2="28.963943"
       y2="130.94566" />
    <linearGradient
       xlink:href="#linearGradient1825"
       id="linearGradient1643"
       gradientUnits="userSpaceOnUse"
       gradientTransform="matrix(1.003269,0,0,1.0032809,-70.05863,-88.375289)"
       x1="30.957426"
       y1="112.0078"
       x2="38.931358"
       y2="128.95221" />
  </defs>
  <metadata
     id="metadata3849">
    <rdf:RDF>
      <cc:Work
         rdf:about="">
        <dc:format>image/svg+xml</dc:format>
        <dc:type
           rdf:resource="http://purl.org/dc/dcmitype/StillImage" />
        <dc:title></dc:title>
      </cc:Work>
    </rdf:RDF>
  </metadata>
  <rect
     style="display:inline;overflow:visible;visibility:visible;opacity:0.15;fill:url(#linearGradient1221);fill-opacity:1;fill-rule:nonzero;stroke:none;stroke-width:1;marker:none"
     id="rect2879-2-3-0"
     y="-23"
     x="9.8999863"
     height="5"
     width="44.199997" />
  <path
     style="display:inline;overflow:visible;visibility:visible;opacity:0.15;fill:url(#radialGradient3156-6-3-5);fill-opacity:1;fill-rule:nonzero;stroke:none;stroke-width:1;marker:none"
     id="path2881-6-8-2"
     d="m 9.9,-22.99978 c 0,0 0,4.9997 0,4.9997 -1.61323,0.01 -3.9,-1.1202 -3.9,-2.5002 0,-1.38 1.80024,-2.4995 3.9,-2.4995 z" />
  <path
     style="display:inline;overflow:visible;visibility:visible;opacity:0.15;fill:url(#radialGradient3153-5-6-62);fill-opacity:1;fill-rule:nonzero;stroke:none;stroke-width:1;marker:none"
     id="path2883-1-5-3"
     d="m 54.1,-22.99978 c 0,0 0,4.9997 0,4.9997 1.61323,0.01 3.9,-1.1202 3.9,-2.5002 0,-1.38 -1.80024,-2.4995 -3.9,-2.4995 z" />
  <rect
     width="46"
     height="58"
     rx="2.5"
     ry="2.5"
     x="9"
     y="-79"
     id="rect5505-21-3-8-5-2-8-7"
     style="color:#000000;font-variation-settings:normal;display:inline;overflow:visible;visibility:visible;opacity:1;vector-effect:none;fill:url(#linearGradient1223);fill-opacity:1;fill-rule:nonzero;stroke:none;stroke-width:1;stroke-linecap:butt;stroke-linejoin:miter;stroke-miterlimit:4;stroke-dasharray:none;stroke-dashoffset:0;stroke-opacity:1;marker:none;enable-background:accumulate;stop-color:#000000;stop-opacity:1" />
  <rect
     width="45"
     height="57"
     rx="2"
     ry="2"
     x="9.5"
     y="-78.428749"
     id="rect6741-5-0-2-3-63-5-5"
     style="fill:none;stroke:url(#linearGradient1225);stroke-width:1;stroke-linecap:round;stroke-linejoin:round;stroke-miterlimit:4;stroke-dasharray:none;stroke-dashoffset:0;stroke-opacity:1" />
  <rect
     width="47"
     height="59"
     rx="3"
     ry="3"
     x="8.5"
     y="-79.5"
     id="rect5505-21-3-8-9-1-1-7-9"
     style="color:#000000;display:inline;overflow:visible;visibility:visible;opacity:0.5;fill:none;stroke:#555761;stroke-width:1;stroke-linecap:butt;stroke-linejoin:miter;stroke-miterlimit:4;stroke-dasharray:none;stroke-dashoffset:0;stroke-opacity:1;marker:none;enable-background:accumulate" />
  <path
     id="path859-59-1-7-1-4-2"
     style="font-variation-settings:normal;opacity:0.15;vector-effect:none;fill:#d1ff82;fill-opacity:1;stroke:none;stroke-width:0.996735;stroke-linecap:butt;stroke-linejoin:miter;stroke-miterlimit:4;stroke-dasharray:none;stroke-dashoffset:0;stroke-opacity:0.5;marker:none;stop-color:#000000"
     transform="matrix(1.003269,0,0,1.0032809,-0.05863,-166.87529)"
     d="m 46.505859,101.49023 c -1.275249,-0.19309 -2.64593,0.0552 -3.814453,0.82813 a 1.0741347,1.0741347 0 0 0 -0.15039,0.12109 c -0.02428,0.0194 -0.05082,0.0362 -0.07422,0.0566 -0.0076,0.007 -0.01589,0.0127 -0.02344,0.0195 l -0.0039,0.004 c -0.0025,0.002 -0.0072,0.004 -0.0098,0.006 -0.0044,0.004 -0.0093,0.008 -0.01367,0.0117 -0.105157,0.0799 -0.220341,0.16191 -0.359375,0.28906 a 1.0741347,1.0741347 0 0 0 -0.144532,0.16406 c -0.05806,0.0582 -0.134986,0.0965 -0.1875,0.16016 l -11.982421,14.54102 -4.751954,-5.05274 a 1.0741347,1.0741347 0 0 0 -0.01758,-0.0156 c -1.794389,-1.89297 -4.714202,-2.19297 -6.880859,-0.76758 a 1.0741347,1.0741347 0 0 0 -0.0039,0.002 c -0.004,0.003 -0.0077,0.005 -0.01172,0.008 -0.238349,0.16015 -0.33659,0.29966 -0.431641,0.41797 -1.952254,1.66793 -2.438837,4.64762 -0.792969,6.76758 l 9.40625,12.66602 c 0.07305,0.0985 0.146165,0.18268 0.214844,0.2539 a 1.0741347,1.0741347 0 0 0 0.0098,0.01 c 0.002,0.002 0.0039,0.004 0.0059,0.006 1.662356,1.69093 4.210757,1.98049 6.261719,0.94336 0.195721,-0.0591 0.388005,-0.13145 0.558594,-0.24414 a 1.0741347,1.0741347 0 0 0 0.0059,-0.004 c 0.546692,-0.36216 1.015397,-0.82115 1.384766,-1.35156 l 15.27539,-21.91016 -0.05859,0.0605 a 1.0741347,1.0741347 0 0 0 0.0918,-0.10547 c 0.02112,-0.0275 0.04277,-0.0555 0.0625,-0.084 v -0.002 c 1.141423,-1.646 1.13144,-3.83887 0.0039,-5.52734 a 1.0741347,1.0741347 0 0 0 -0.164063,-0.30078 1.0741347,1.0741347 0 0 0 -0.002,-0.004 c -0.871114,-1.11871 -2.121861,-1.7729 -3.402344,-1.9668 z m -13.197265,31.19532 -0.07813,0.0469 a 1.0741347,1.0741347 0 0 0 0.07813,-0.0469 z m -8.335938,-20.0625 c -0.002,-0.003 -0.0072,-0.008 -0.0078,-0.008 z" />
  <path
     id="path859-59-1-7-1-2"
     style="font-variation-settings:normal;opacity:0.15;vector-effect:none;fill:#68b723;fill-opacity:1;stroke:none;stroke-width:0.996735;stroke-linecap:butt;stroke-linejoin:miter;stroke-miterlimit:4;stroke-dasharray:none;stroke-dashoffset:0;stroke-opacity:0.5;marker:none;stop-color:#000000"
     transform="matrix(1.003269,0,0,1.0032809,-0.05863,-166.87529)"
     d="m 46.345703,102.55273 c -1.028425,-0.15572 -2.128692,0.0445 -3.0625,0.66211 a 1.0339792,1.0339792 0 0 0 -0.0039,0.004 1.0339792,1.0339792 0 0 0 -0.130859,0.10352 1.0339792,1.0339792 0 0 0 -0.01367,0.0137 1.0339792,1.0339792 0 0 0 -0.01172,0.01 c -0.123034,0.0949 -0.252737,0.19199 -0.341797,0.27344 l 0.181641,-0.13281 c -0.155655,0.0896 -0.295986,0.20899 -0.410157,0.34765 l -12.757812,15.48243 -5.587891,-5.94141 -0.0039,-0.004 a 1.0339792,1.0339792 0 0 0 -0.0059,-0.006 1.0339792,1.0339792 0 0 0 -0.0039,-0.004 c -1.431632,-1.51028 -3.773335,-1.75302 -5.511718,-0.60938 a 1.0339792,1.0339792 0 0 0 -0.0059,0.004 c -0.125142,0.0834 -0.219607,0.20166 -0.314453,0.31836 -1.565417,1.31548 -1.953798,3.6546 -0.662109,5.31836 l 9.419922,12.68359 c 0.03882,0.0525 0.08162,0.10143 0.126953,0.14844 a 1.0339792,1.0339792 0 0 0 0.0078,0.008 c 1.354233,1.37751 3.459363,1.60999 5.134766,0.69922 a 1.0339792,1.0339792 0 0 0 0.328125,-0.14258 1.0339792,1.0339792 0 0 0 0.0039,-0.002 c 0.43415,-0.28761 0.806295,-0.65192 1.097656,-1.07031 l 15.330079,-21.98828 0.0078,-0.008 a 1.0339792,1.0339792 0 0 0 0.03125,-0.043 c 0.942222,-1.35758 0.918762,-3.20973 -0.126953,-4.55859 a 1.0339792,1.0339792 0 0 0 0,-0.002 c -0.689176,-0.88506 -1.684741,-1.40848 -2.714844,-1.56446 z" />
  <path
     id="path859-59-1-5-8"
     style="font-variation-settings:normal;opacity:0.3;vector-effect:none;fill:#206b00;fill-opacity:1;stroke:none;stroke-width:0.996735;stroke-linecap:butt;stroke-linejoin:miter;stroke-miterlimit:4;stroke-dasharray:none;stroke-dashoffset:0;stroke-opacity:0.5;marker:none;stop-color:#000000"
     transform="matrix(1.003269,0,0,1.0032809,-0.05863,-166.87529)"
     d="m 46.191406,103.57422 c -0.78987,-0.1196 -1.630432,0.0359 -2.33789,0.5039 a 0.46511336,0.46511336 0 0 0 -0.002,0.002 c -0.134145,0.0892 -0.254755,0.19454 -0.373046,0.30273 a 0.46511336,0.46511336 0 0 0 -0.126954,0.10742 l -13.505859,16.39063 -6.402344,-6.80664 a 0.46511336,0.46511336 0 0 0 0,-0.002 C 22.367134,112.93692 20.570812,112.7463 19.25,113.61523 A 0.46511336,0.46511336 0 0 0 19.117188,113.75 c -1.278314,0.96672 -1.585889,2.73995 -0.601563,4.00781 l 9.433594,12.70117 a 0.46511336,0.46511336 0 0 0 0.04102,0.0488 c 1.083332,1.10195 2.854597,1.27577 4.158204,0.41797 a 0.46511336,0.46511336 0 0 0 0.002,0 c 0.326116,-0.21604 0.60308,-0.48838 0.820312,-0.80078 l 15.365235,-22.03711 a 0.46511336,0.46511336 0 0 0 0.002,0 c 0.691024,-0.99565 0.679801,-2.33814 -0.09375,-3.33594 -0.51378,-0.65981 -1.262945,-1.05814 -2.052735,-1.17773 z" />
  <path
     id="path859-59-98-9"
     style="font-variation-settings:normal;vector-effect:none;fill:url(#linearGradient2068-3);fill-opacity:1;stroke:#206b00;stroke-width:0.996735;stroke-linecap:butt;stroke-linejoin:miter;stroke-miterlimit:4;stroke-dasharray:none;stroke-dashoffset:0;stroke-opacity:0.5;marker:none;stop-color:#000000"
     transform="matrix(1.003269,0,0,1.0032809,-0.05863,-168.37529)"
     d="m 46.191406,103.57422 c -0.78987,-0.1196 -1.630432,0.0359 -2.33789,0.5039 a 0.46511336,0.46511336 0 0 0 -0.002,0.002 c -0.134145,0.0892 -0.254755,0.19454 -0.373046,0.30273 a 0.46511336,0.46511336 0 0 0 -0.126954,0.10742 l -13.505859,16.39063 -6.402344,-6.80664 a 0.46511336,0.46511336 0 0 0 0,-0.002 C 22.367134,112.93692 20.570812,112.7463 19.25,113.61523 A 0.46511336,0.46511336 0 0 0 19.117188,113.75 c -1.278314,0.96672 -1.585889,2.73995 -0.601563,4.00781 l 9.433594,12.70117 a 0.46511336,0.46511336 0 0 0 0.04102,0.0488 c 1.083332,1.10195 2.854597,1.27577 4.158204,0.41797 a 0.46511336,0.46511336 0 0 0 0.002,0 c 0.326116,-0.21604 0.60308,-0.48838 0.820312,-0.80078 l 15.365235,-22.03711 a 0.46511336,0.46511336 0 0 0 0.002,0 c 0.691024,-0.99565 0.679801,-2.33814 -0.09375,-3.33594 -0.51378,-0.65981 -1.262945,-1.05814 -2.052735,-1.17773 z" />
  <path
     id="path859-59-9-4-7"
     style="font-variation-settings:normal;opacity:0.6;vector-effect:none;fill:none;fill-opacity:1;stroke:url(#linearGradient1227);stroke-width:0.999999;stroke-linecap:butt;stroke-linejoin:miter;stroke-miterlimit:4;stroke-dasharray:none;stroke-dashoffset:0;stroke-opacity:0.5;marker:none;stop-color:#000000"
     d="m 30,-45.89648 c -0.16889,0.0322 -0.34256,-0.0238 -0.46094,-0.14844 l -6.78515,-7.21485 c -0.46147,-0.48605 -1.14032,-0.72638 -1.81055,-0.68945 -0.40214,0.0222 -0.80126,0.14411 -1.14844,0.3711 -0.002,10e-4 -0.004,0.003 -0.006,0.004 -0.99313,0.65638 -1.20175,1.84918 -0.5039,2.74805 0.002,0.003 0.004,0.005 0.006,0.008 l 9.4375,12.70508 c 0.34138,0.34245 0.79443,0.54952 1.27148,0.62305" />
  <path
     id="path859-59-9-7-8-3"
     style="font-variation-settings:normal;opacity:0.6;vector-effect:none;fill:none;fill-opacity:1;stroke:url(#linearGradient1229);stroke-width:0.999999;stroke-linecap:butt;stroke-linejoin:miter;stroke-miterlimit:4;stroke-dasharray:none;stroke-dashoffset:0;stroke-opacity:0.5;marker:none;stop-color:#000000"
     d="m 29.99995,-37.49019 c 0.5661,0.0872 1.16663,-0.0171 1.66016,-0.3418 0.22734,-0.15061 0.41652,-0.335 0.5625,-0.54492 h 0.002 l 15.41602,-22.11133 h -0.002 c 0.46335,-0.66763 0.4614,-1.51701 -0.0645,-2.19531 -0.34995,-0.44874 -0.87133,-0.73263 -1.4375,-0.81836 -0.14164,-0.0215 -0.28598,-0.0291 -0.42968,-0.0254 l 4e-5,-3e-5 c -0.43109,0.0112 -0.86165,0.13627 -1.23437,0.38281 -0.11633,0.0775 -0.22398,0.16446 -0.32032,0.25976 l -0.002,0.002 -13.85156,16.8125 c -0.0761,0.0913 -0.18188,0.15283 -0.29883,0.17383" />
  <rect
     style="display:inline;overflow:visible;visibility:visible;opacity:0.15;fill:url(#linearGradient1385);fill-opacity:1;fill-rule:nonzero;stroke:none;stroke-width:1;marker:none"
     id="rect2879-2-3-0-5"
     y="57"
     x="9.8999863"
     height="5"
     width="44.199997" />
  <path
     style="display:inline;overflow:visible;visibility:visible;opacity:0.15;fill:url(#radialGradient3156-6-3-5-9);fill-opacity:1;fill-rule:nonzero;stroke:none;stroke-width:1;marker:none"
     id="path2881-6-8-2-4"
     d="m 9.9,57.00022 c 0,0 0,4.9997 0,4.9997 -1.61323,0.01 -3.9,-1.1202 -3.9,-2.5002 0,-1.38 1.80024,-2.4995 3.9,-2.4995 z" />
  <path
     style="display:inline;overflow:visible;visibility:visible;opacity:0.15;fill:url(#radialGradient3153-5-6-62-9);fill-opacity:1;fill-rule:nonzero;stroke:none;stroke-width:1;marker:none"
     id="path2883-1-5-3-7"
     d="m 54.1,57.00022 c 0,0 0,4.9997 0,4.9997 1.61323,0.01 3.9,-1.1202 3.9,-2.5002 0,-1.38 -1.80024,-2.4995 -3.9,-2.4995 z" />
  <rect
     width="46"
     height="58"
     rx="2.5"
     ry="2.5"
     x="9"
     y="1"
     id="rect5505-21-3-8-5-2-8-7-6"
     style="color:#000000;display:inline;overflow:visible;visibility:visible;fill:url(#linearGradient1387);fill-opacity:1;fill-rule:nonzero;stroke:none;stroke-width:1;marker:none;enable-background:accumulate" />
  <rect
     width="45"
     height="57"
     rx="2"
     ry="2"
     x="9.5"
     y="1.5712509"
     id="rect6741-5-0-2-3-63-5-5-5"
     style="fill:none;stroke:url(#linearGradient1389);stroke-width:1;stroke-linecap:round;stroke-linejoin:round;stroke-miterlimit:4;stroke-dasharray:none;stroke-dashoffset:0;stroke-opacity:1" />
  <rect
     width="47"
     height="59"
     rx="3"
     ry="3"
     x="8.5"
     y="0.5"
     id="rect5505-21-3-8-9-1-1-7-9-6"
     style="color:#000000;display:inline;overflow:visible;visibility:visible;opacity:0.5;fill:none;stroke:#555761;stroke-width:1;stroke-linecap:butt;stroke-linejoin:miter;stroke-miterlimit:4;stroke-dasharray:none;stroke-dashoffset:0;stroke-opacity:1;marker:none;enable-background:accumulate" />
  <path
     id="path859-59-1-7-1-4-2-9"
     style="font-variation-settings:normal;opacity:0.15;vector-effect:none;fill:#d1ff82;fill-opacity:1;stroke:none;stroke-width:0.999999;stroke-linecap:butt;stroke-linejoin:miter;stroke-miterlimit:4;stroke-dasharray:none;stroke-dashoffset:0;stroke-opacity:0.5;marker:none;stop-color:#000000"
     d="m 46.599257,14.947915 c -1.279418,-0.193723 -2.65458,0.05538 -3.826923,0.830847 a 1.077646,1.0776588 0 0 0 -0.150881,0.121488 c -0.02436,0.01946 -0.05099,0.03632 -0.07446,0.05678 -0.0076,0.007 -0.01594,0.01274 -0.02352,0.01956 l -0.0039,0.004 c -0.0025,0.002 -0.0072,0.004 -0.0098,0.006 -0.0044,0.004 -0.0093,0.008 -0.01371,0.01174 -0.105501,0.08016 -0.221061,0.162442 -0.36055,0.290009 a 1.077646,1.0776588 0 0 0 -0.145004,0.164598 c -0.05825,0.05839 -0.135428,0.09682 -0.188113,0.160686 L 29.780755,31.20239 25.013267,26.133073 a 1.077646,1.0776588 0 0 0 -0.01764,-0.01565 c -1.800255,-1.89918 -4.729613,-2.200164 -6.903353,-0.770098 a 1.077646,1.0776588 0 0 0 -0.0039,0.002 c -0.004,0.003 -0.0077,0.005 -0.01176,0.008 -0.239128,0.160675 -0.33769,0.300643 -0.433052,0.419341 -1.958636,1.673403 -2.44681,4.662869 -0.795561,6.789784 L 26.285,45.274026 c 0.07329,0.09882 0.146643,0.183279 0.215546,0.254733 a 1.077646,1.0776588 0 0 0 0.0098,0.01003 c 0.002,0.002 0.0039,0.004 0.0059,0.006 1.667791,1.696478 4.224522,1.986988 6.282189,0.946456 0.196361,-0.05929 0.389273,-0.131882 0.56042,-0.244941 a 1.077646,1.0776588 0 0 0 0.0059,-0.004 c 0.548479,-0.363348 1.018717,-0.823844 1.389293,-1.355994 l 15.325325,-21.982045 -0.05878,0.0607 a 1.077646,1.0776588 0 0 0 0.0921,-0.105816 c 0.02119,-0.02759 0.04291,-0.05568 0.0627,-0.08428 v -0.002 c 1.145154,-1.6514 1.135139,-3.851465 0.0039,-5.545474 a 1.077646,1.0776588 0 0 0 -0.164599,-0.301767 1.077646,1.0776588 0 0 0 -0.002,-0.004 c -0.873962,-1.122381 -2.128797,-1.778717 -3.413466,-1.973253 z m -13.240407,31.297669 -0.07839,0.04705 a 1.077646,1.0776588 0 0 0 0.07839,-0.04705 z M 24.995662,26.117261 c -0.002,-0.003 -0.0072,-0.008 -0.0078,-0.008 z" />
  <path
     id="path859-59-1-7-1-2-3"
     style="font-variation-settings:normal;opacity:0.15;vector-effect:none;fill:#68b723;fill-opacity:1;stroke:none;stroke-width:0.999999;stroke-linecap:butt;stroke-linejoin:miter;stroke-miterlimit:4;stroke-dasharray:none;stroke-dashoffset:0;stroke-opacity:0.5;marker:none;stop-color:#000000"
     d="m 46.438577,16.013901 c -1.031787,-0.156231 -2.135651,0.04465 -3.072511,0.664283 a 1.0373593,1.0373716 0 0 0 -0.0039,0.004 1.0373593,1.0373716 0 0 0 -0.131287,0.103859 1.0373593,1.0373716 0 0 0 -0.01371,0.01375 1.0373593,1.0373716 0 0 0 -0.01176,0.01003 c -0.123436,0.09521 -0.253563,0.19262 -0.342914,0.274337 l 0.182235,-0.133246 c -0.156164,0.08989 -0.296954,0.209676 -0.411498,0.348791 l -12.799517,15.533226 -5.606158,-5.960903 -0.0039,-0.004 a 1.0373593,1.0373716 0 0 0 -0.0059,-0.006 1.0373593,1.0373716 0 0 0 -0.0039,-0.004 c -1.436312,-1.515235 -3.78567,-1.758771 -5.529736,-0.611379 a 1.0373593,1.0373716 0 0 0 -0.0059,0.004 c -0.125551,0.08367 -0.220325,0.202322 -0.315481,0.319405 -1.570534,1.319796 -1.960185,3.66659 -0.664273,5.335809 l 9.450715,12.725203 c 0.03895,0.05267 0.08189,0.101763 0.127368,0.148927 a 1.0373593,1.0373716 0 0 0 0.0078,0.008 c 1.35866,1.38203 3.470671,1.615273 5.151551,0.701515 a 1.0373593,1.0373716 0 0 0 0.329198,-0.143048 1.0373593,1.0373716 0 0 0 0.0039,-0.002 c 0.435569,-0.288553 0.80893,-0.654059 1.101244,-1.073821 l 15.380193,-22.060422 0.0078,-0.008 a 1.0373593,1.0373716 0 0 0 0.03135,-0.04314 c 0.945302,-1.362034 0.921765,-3.220261 -0.127368,-4.573546 a 1.0373593,1.0373716 0 0 0 0,-0.002 c -0.691442,-0.888001 -1.690262,-1.413138 -2.723732,-1.56963 z" />
  <path
     id="path859-59-1-5-8-7"
     style="font-variation-settings:normal;opacity:0.3;vector-effect:none;fill:#007367;fill-opacity:1;stroke:none;stroke-width:0.999999;stroke-linecap:butt;stroke-linejoin:miter;stroke-miterlimit:4;stroke-dasharray:none;stroke-dashoffset:0;stroke-opacity:0.5;marker:none;stop-color:#000000"
     d="m 46.283776,17.038743 c -0.792452,-0.119993 -1.635762,0.03602 -2.345533,0.505553 a 0.46663382,0.46663935 0 0 0 -0.002,0.002 c -0.134584,0.08949 -0.255588,0.195179 -0.374266,0.303724 a 0.46663382,0.46663935 0 0 0 -0.127369,0.107772 l -13.55001,16.444406 -6.423273,-6.828972 a 0.46663382,0.46663935 0 0 0 0,-0.002 c -1.079697,-1.139065 -2.881891,-1.330311 -4.207021,-0.45853 a 0.46663382,0.46663935 0 0 0 -0.133246,0.135212 c -1.282493,0.969892 -1.591073,2.74894 -0.603529,4.02096 l 9.464432,12.742841 a 0.46663382,0.46663935 0 0 0 0.04115,0.04896 c 1.086874,1.105565 2.863929,1.279956 4.171797,0.419341 a 0.46663382,0.46663935 0 0 0 0.002,0 c 0.327182,-0.216749 0.605051,-0.489982 0.822993,-0.803407 L 48.43537,21.567191 a 0.46663382,0.46663935 0 0 0 0.002,0 c 0.69329,-0.998916 0.68203,-2.345811 -0.09405,-3.346884 -0.515459,-0.661975 -1.267073,-1.061612 -2.059445,-1.181594 z" />
  <path
     id="path859-59-98-9-4"
     style="font-variation-settings:normal;vector-effect:none;fill:url(#linearGradient2068-3-3);fill-opacity:1;stroke:url(#linearGradient1419);stroke-width:0.999999;stroke-linecap:butt;stroke-linejoin:miter;stroke-miterlimit:4;stroke-dasharray:none;stroke-dashoffset:0;stroke-opacity:0.5;marker:none;stop-color:#000000"
     d="m 46.283776,15.538748 c -0.792452,-0.119993 -1.635762,0.03602 -2.345533,0.505553 a 0.46663382,0.46663935 0 0 0 -0.002,0.002 c -0.134584,0.08949 -0.255588,0.195179 -0.374266,0.303724 a 0.46663382,0.46663935 0 0 0 -0.127369,0.107772 l -13.55001,16.444406 -6.423273,-6.828972 a 0.46663382,0.46663935 0 0 0 0,-0.002 c -1.079697,-1.139065 -2.881891,-1.330311 -4.207021,-0.45853 a 0.46663382,0.46663935 0 0 0 -0.133246,0.135212 c -1.282493,0.969892 -1.591073,2.74894 -0.603529,4.02096 l 9.464432,12.742841 a 0.46663382,0.46663935 0 0 0 0.04115,0.04896 c 1.086874,1.105565 2.863929,1.279956 4.171797,0.419341 a 0.46663382,0.46663935 0 0 0 0.002,0 c 0.327182,-0.216749 0.605051,-0.489982 0.822993,-0.803407 L 48.43537,20.067196 a 0.46663382,0.46663935 0 0 0 0.002,0 C 49.13066,19.06828 49.1194,17.721385 48.34332,16.720312 47.827861,16.058337 47.076247,15.6587 46.283875,15.538718 Z" />
  <path
     id="path859-59-9-4-7-5"
     style="font-variation-settings:normal;opacity:0.6;vector-effect:none;fill:none;fill-opacity:1;stroke:url(#linearGradient1391);stroke-width:0.999999;stroke-linecap:butt;stroke-linejoin:miter;stroke-miterlimit:4;stroke-dasharray:none;stroke-dashoffset:0;stroke-opacity:0.5;marker:none;stop-color:#000000"
     d="m 30,34.10352 c -0.16889,0.0322 -0.34256,-0.0238 -0.46094,-0.14844 l -6.78515,-7.21485 c -0.46147,-0.48605 -1.14032,-0.72638 -1.81055,-0.68945 -0.40214,0.0222 -0.80126,0.14411 -1.14844,0.3711 -0.002,10e-4 -0.004,0.003 -0.006,0.004 -0.99313,0.65638 -1.20175,1.84918 -0.5039,2.74805 0.002,0.003 0.004,0.005 0.006,0.008 l 9.4375,12.70508 C 29.0699,42.22946 29.52295,42.43653 30,42.51006" />
  <path
     id="path859-59-9-7-8-3-2"
     style="font-variation-settings:normal;opacity:0.8;vector-effect:none;fill:none;fill-opacity:1;stroke:url(#linearGradient1393);stroke-width:0.999999;stroke-linecap:butt;stroke-linejoin:miter;stroke-miterlimit:4;stroke-dasharray:none;stroke-dashoffset:0;stroke-opacity:0.5;marker:none;stop-color:#000000"
     d="m 29.99995,42.50981 c 0.5661,0.0872 1.16663,-0.0171 1.66016,-0.3418 0.22734,-0.15061 0.41652,-0.335 0.5625,-0.54492 h 0.002 L 47.64063,19.51176 h -0.002 c 0.46335,-0.66763 0.4614,-1.51701 -0.0645,-2.19531 -0.34995,-0.44874 -0.87133,-0.73263 -1.4375,-0.81836 -0.14164,-0.0215 -0.28598,-0.0291 -0.42968,-0.0254 l 4e-5,-3e-5 c -0.43109,0.0112 -0.86165,0.13627 -1.23437,0.38281 -0.11633,0.0775 -0.22398,0.16446 -0.32032,0.25976 l -0.002,0.002 -13.85156,16.8125 c -0.0761,0.0913 -0.18188,0.15283 -0.29883,0.17383" />
  <rect
     style="display:inline;overflow:visible;visibility:visible;opacity:0.15;fill:url(#linearGradient1633);fill-opacity:1;fill-rule:nonzero;stroke:none;stroke-width:1;marker:none"
     id="rect2879-2-3-0-5-9"
     y="57"
     x="-60.100014"
     height="5"
     width="44.199997" />
  <path
     style="display:inline;overflow:visible;visibility:visible;opacity:0.15;fill:url(#radialGradient3156-6-3-5-9-4);fill-opacity:1;fill-rule:nonzero;stroke:none;stroke-width:1;marker:none"
     id="path2881-6-8-2-4-5"
     d="m -60.1,57.00022 c 0,0 0,4.9997 0,4.9997 -1.61323,0.01 -3.9,-1.1202 -3.9,-2.5002 0,-1.38 1.80024,-2.4995 3.9,-2.4995 z" />
  <path
     style="display:inline;overflow:visible;visibility:visible;opacity:0.15;fill:url(#radialGradient3153-5-6-62-9-0);fill-opacity:1;fill-rule:nonzero;stroke:none;stroke-width:1;marker:none"
     id="path2883-1-5-3-7-0"
     d="m -15.9,57.00022 c 0,0 0,4.9997 0,4.9997 1.61323,0.01 3.9,-1.1202 3.9,-2.5002 0,-1.38 -1.80024,-2.4995 -3.9,-2.4995 z" />
  <rect
     width="46"
     height="58"
     rx="2.5"
     ry="2.5"
     x="-61"
     y="1"
     id="rect5505-21-3-8-5-2-8-7-6-4"
     style="color:#000000;display:inline;overflow:visible;visibility:visible;fill:url(#linearGradient1635);fill-opacity:1;fill-rule:nonzero;stroke:none;stroke-width:1;marker:none;enable-background:accumulate" />
  <rect
     width="45"
     height="57"
     rx="2"
     ry="2"
     x="-60.5"
     y="1.5712509"
     id="rect6741-5-0-2-3-63-5-5-5-8"
     style="fill:none;stroke:url(#linearGradient1637);stroke-width:1;stroke-linecap:round;stroke-linejoin:round;stroke-miterlimit:4;stroke-dasharray:none;stroke-dashoffset:0;stroke-opacity:1" />
  <rect
     width="47"
     height="59"
     rx="3"
     ry="3"
     x="-61.5"
     y="0.5"
     id="rect5505-21-3-8-9-1-1-7-9-6-7"
     style="color:#000000;display:inline;overflow:visible;visibility:visible;opacity:0.5;fill:none;stroke:#555761;stroke-width:1;stroke-linecap:butt;stroke-linejoin:miter;stroke-miterlimit:4;stroke-dasharray:none;stroke-dashoffset:0;stroke-opacity:1;marker:none;enable-background:accumulate" />
  <path
     id="path859-59-1-7-1-4-2-9-1"
     style="font-variation-settings:normal;opacity:0.15;vector-effect:none;fill:#fe9ab8;fill-opacity:1;stroke:none;stroke-width:0.999999;stroke-linecap:butt;stroke-linejoin:miter;stroke-miterlimit:4;stroke-dasharray:none;stroke-dashoffset:0;stroke-opacity:0.5;marker:none;stop-color:#000000"
     d="m -23.400743,14.947915 c -1.279418,-0.193723 -2.65458,0.05538 -3.826923,0.830847 a 1.077646,1.0776588 0 0 0 -0.150881,0.121488 c -0.02436,0.01946 -0.05099,0.03632 -0.07446,0.05678 -0.0076,0.007 -0.01594,0.01274 -0.02352,0.01956 l -0.0039,0.004 c -0.0025,0.002 -0.0072,0.004 -0.0098,0.006 -0.0044,0.004 -0.0093,0.008 -0.01372,0.01174 -0.105501,0.08016 -0.221061,0.162442 -0.36055,0.290009 a 1.077646,1.0776588 0 0 0 -0.145004,0.164598 c -0.05825,0.05839 -0.135428,0.09682 -0.188113,0.160686 l -12.021592,14.588727 -4.767488,-5.069317 a 1.077646,1.0776588 0 0 0 -0.01764,-0.01565 c -1.800255,-1.89918 -4.729613,-2.200164 -6.903353,-0.770098 a 1.077646,1.0776588 0 0 0 -0.0039,0.002 c -0.004,0.003 -0.0077,0.005 -0.01176,0.008 -0.239128,0.160675 -0.33769,0.300643 -0.433052,0.419341 -1.958636,1.673403 -2.44681,4.662869 -0.795561,6.789784 l 9.436999,12.707576 c 0.07329,0.09882 0.146643,0.183279 0.215546,0.254733 a 1.077646,1.0776588 0 0 0 0.0098,0.01003 c 0.002,0.002 0.0039,0.004 0.0059,0.006 1.667791,1.696478 4.224522,1.986988 6.282189,0.946456 0.196361,-0.05929 0.389273,-0.131882 0.56042,-0.244941 a 1.077646,1.0776588 0 0 0 0.0059,-0.004 c 0.548479,-0.363348 1.018717,-0.823844 1.389293,-1.355994 l 15.325325,-21.982045 -0.05878,0.0607 a 1.077646,1.0776588 0 0 0 0.0921,-0.105816 c 0.02119,-0.02759 0.04291,-0.05568 0.0627,-0.08428 v -0.002 c 1.145154,-1.6514 1.135139,-3.851465 0.0039,-5.545474 a 1.077646,1.0776588 0 0 0 -0.164599,-0.301767 1.077646,1.0776588 0 0 0 -0.002,-0.004 c -0.873962,-1.122381 -2.128797,-1.778717 -3.413466,-1.973253 z m -13.240407,31.297669 -0.07839,0.04705 a 1.077646,1.0776588 0 0 0 0.07839,-0.04705 z m -8.363188,-20.128323 c -0.002,-0.003 -0.0072,-0.008 -0.0078,-0.008 z" />
  <path
     id="path859-59-1-7-1-2-3-7"
     style="font-variation-settings:normal;opacity:0.15;vector-effect:none;fill:#de3e80;fill-opacity:1;stroke:none;stroke-width:0.999999;stroke-linecap:butt;stroke-linejoin:miter;stroke-miterlimit:4;stroke-dasharray:none;stroke-dashoffset:0;stroke-opacity:0.5;marker:none;stop-color:#000000"
     d="m -23.561423,16.013901 c -1.031787,-0.156231 -2.135651,0.04465 -3.072511,0.664283 a 1.0373593,1.0373716 0 0 0 -0.0039,0.004 1.0373593,1.0373716 0 0 0 -0.131287,0.103859 1.0373593,1.0373716 0 0 0 -0.01371,0.01375 1.0373593,1.0373716 0 0 0 -0.01176,0.01003 c -0.123436,0.09521 -0.253563,0.19262 -0.342914,0.274337 l 0.182235,-0.133246 c -0.156164,0.08989 -0.296954,0.209676 -0.411498,0.348791 l -12.799517,15.533226 -5.606158,-5.960903 -0.0039,-0.004 a 1.0373593,1.0373716 0 0 0 -0.0059,-0.006 1.0373593,1.0373716 0 0 0 -0.0039,-0.004 c -1.436312,-1.515235 -3.78567,-1.758771 -5.529736,-0.611379 a 1.0373593,1.0373716 0 0 0 -0.0059,0.004 c -0.125551,0.08367 -0.220325,0.202322 -0.315481,0.319405 -1.570534,1.319796 -1.960185,3.66659 -0.664273,5.335809 l 9.450715,12.725203 c 0.03895,0.05267 0.08189,0.101763 0.127368,0.148927 a 1.0373593,1.0373716 0 0 0 0.0078,0.008 c 1.35866,1.38203 3.470671,1.615273 5.151551,0.701515 a 1.0373593,1.0373716 0 0 0 0.329198,-0.143048 1.0373593,1.0373716 0 0 0 0.0039,-0.002 c 0.435569,-0.288553 0.80893,-0.654059 1.101244,-1.073821 l 15.380193,-22.060422 0.0078,-0.008 a 1.0373593,1.0373716 0 0 0 0.03135,-0.04314 c 0.945302,-1.362034 0.921765,-3.220261 -0.127368,-4.573546 a 1.0373593,1.0373716 0 0 0 0,-0.002 c -0.691429,-0.887964 -1.690249,-1.413101 -2.723719,-1.569593 z" />
  <path
     id="path859-59-1-5-8-7-2"
     style="font-variation-settings:normal;opacity:0.3;vector-effect:none;fill:#bc245d;fill-opacity:1;stroke:none;stroke-width:0.999999;stroke-linecap:butt;stroke-linejoin:miter;stroke-miterlimit:4;stroke-dasharray:none;stroke-dashoffset:0;stroke-opacity:0.5;marker:none;stop-color:#000000"
     d="m -23.716224,17.038743 c -0.792452,-0.119993 -1.635762,0.03602 -2.345533,0.505553 a 0.46663382,0.46663935 0 0 0 -0.002,0.002 c -0.134584,0.08949 -0.255588,0.195179 -0.374266,0.303724 a 0.46663382,0.46663935 0 0 0 -0.127369,0.107772 l -13.55001,16.444406 -6.423273,-6.828972 a 0.46663382,0.46663935 0 0 0 0,-0.002 c -1.079697,-1.139065 -2.881891,-1.330311 -4.207021,-0.45853 a 0.46663382,0.46663935 0 0 0 -0.133246,0.135212 c -1.282493,0.969892 -1.591073,2.74894 -0.603529,4.02096 l 9.464432,12.742841 a 0.46663382,0.46663935 0 0 0 0.04115,0.04896 c 1.086874,1.105565 2.863929,1.279956 4.171797,0.419341 a 0.46663382,0.46663935 0 0 0 0.002,0 c 0.327182,-0.216749 0.605051,-0.489982 0.822993,-0.803407 L -21.56463,21.567191 a 0.46663382,0.46663935 0 0 0 0.002,0 c 0.693283,-0.998916 0.682023,-2.345811 -0.09406,-3.346884 -0.515459,-0.661975 -1.267073,-1.061612 -2.059445,-1.181594 z" />
  <path
     id="path859-59-98-9-4-7"
     style="font-variation-settings:normal;vector-effect:none;fill:url(#linearGradient2068-3-3-3);fill-opacity:1;stroke:#910e38;stroke-width:0.999999;stroke-linecap:butt;stroke-linejoin:miter;stroke-miterlimit:4;stroke-dasharray:none;stroke-dashoffset:0;stroke-opacity:0.5;marker:none;stop-color:#000000"
     d="m -23.716224,15.538748 c -0.792452,-0.119993 -1.635762,0.03602 -2.345533,0.505553 a 0.46663382,0.46663935 0 0 0 -0.002,0.002 c -0.134584,0.08949 -0.255588,0.195179 -0.374266,0.303724 a 0.46663382,0.46663935 0 0 0 -0.127369,0.107772 l -13.55001,16.444406 -6.423273,-6.828972 a 0.46663382,0.46663935 0 0 0 0,-0.002 c -1.079697,-1.139065 -2.881891,-1.330311 -4.207021,-0.45853 a 0.46663382,0.46663935 0 0 0 -0.133246,0.135212 c -1.282493,0.969892 -1.591073,2.74894 -0.603529,4.02096 l 9.464432,12.742841 a 0.46663382,0.46663935 0 0 0 0.04115,0.04896 c 1.086874,1.105565 2.863929,1.279956 4.171797,0.419341 a 0.46663382,0.46663935 0 0 0 0.002,0 c 0.327182,-0.216749 0.605051,-0.489982 0.822993,-0.803407 L -21.56463,20.067196 a 0.46663382,0.46663935 0 0 0 0.002,0 c 0.693283,-0.998916 0.682023,-2.345811 -0.09406,-3.346884 -0.515459,-0.661975 -1.267073,-1.061612 -2.059445,-1.181594 z" />
  <path
     id="path859-59-9-4-7-5-2"
     style="font-variation-settings:normal;opacity:0.6;vector-effect:none;fill:none;fill-opacity:1;stroke:url(#linearGradient1641);stroke-width:0.999999;stroke-linecap:butt;stroke-linejoin:miter;stroke-miterlimit:4;stroke-dasharray:none;stroke-dashoffset:0;stroke-opacity:0.5;marker:none;stop-color:#000000"
     d="m -40,34.10352 c -0.16889,0.0322 -0.34256,-0.0238 -0.46094,-0.14844 l -6.78515,-7.21485 c -0.46147,-0.48605 -1.14032,-0.72638 -1.81055,-0.68945 -0.40214,0.0222 -0.80126,0.14411 -1.14844,0.3711 -0.002,10e-4 -0.004,0.003 -0.006,0.004 -0.99313,0.65638 -1.20175,1.84918 -0.5039,2.74805 0.002,0.003 0.004,0.005 0.006,0.008 l 9.4375,12.70508 c 0.34138,0.34245 0.79443,0.54952 1.27148,0.62305" />
  <path
     id="path859-59-9-7-8-3-2-2"
     style="font-variation-settings:normal;opacity:0.8;vector-effect:none;fill:none;fill-opacity:1;stroke:url(#linearGradient1643);stroke-width:0.999999;stroke-linecap:butt;stroke-linejoin:miter;stroke-miterlimit:4;stroke-dasharray:none;stroke-dashoffset:0;stroke-opacity:0.5;marker:none;stop-color:#000000"
     d="m -40.00005,42.50981 c 0.5661,0.0872 1.16663,-0.0171 1.66016,-0.3418 0.22734,-0.15061 0.41652,-0.335 0.5625,-0.54492 h 0.002 l 15.41602,-22.11133 h -0.002 c 0.46335,-0.66763 0.4614,-1.51701 -0.0645,-2.19531 -0.34995,-0.44874 -0.87133,-0.73263 -1.4375,-0.81836 -0.14164,-0.0215 -0.28598,-0.0291 -0.42968,-0.0254 l 4e-5,-3e-5 c -0.43109,0.0112 -0.86165,0.13627 -1.23437,0.38281 -0.11633,0.0775 -0.22398,0.16446 -0.32032,0.25976 l -0.002,0.002 -13.85156,16.8125 c -0.0761,0.0913 -0.18188,0.15283 -0.29883,0.17383" />
</svg>
